<svg width="18" height="18" viewBox="0 0 18 18" fill="none" xmlns="http://www.w3.org/2000/svg">
<g clip-path="url(#clip0_5434_6612)">
<path d="M5.57254 14.142C4.62969 14.142 3.85826 14.9134 3.85826 15.8563C3.85826 16.7992 4.62969 17.5706 5.57254 17.5706C6.5154 17.5706 7.28683 16.7992 7.28683 15.8563C7.28683 14.9134 6.5154 14.142 5.57254 14.142ZM0.429688 0.427734V2.14202H2.14397L5.22969 8.65631L4.02969 10.7134C3.94397 10.9706 3.85826 11.3134 3.85826 11.5706C3.85826 12.5134 4.62969 13.2849 5.57254 13.2849H15.8583V11.5706H5.9154C5.82969 11.5706 5.74397 11.4849 5.74397 11.3992V11.3134L6.5154 9.85627H12.8583C13.544 9.85627 14.0583 9.51341 14.3154 8.99913L17.4011 3.42773C17.5725 3.25631 17.5725 3.17059 17.5725 2.99916C17.5725 2.48488 17.2297 2.14202 16.7154 2.14202H4.02969L3.25826 0.427734H0.429688ZM14.144 14.142C13.2011 14.142 12.4297 14.9134 12.4297 15.8563C12.4297 16.7992 13.2011 17.5706 14.144 17.5706C15.0868 17.5706 15.8583 16.7992 15.8583 15.8563C15.8583 14.9134 15.0868 14.142 14.144 14.142Z" fill="#D92E15"/>
</g>
<defs>
<clipPath id="clip0_5434_6612">
<rect width="17.1429" height="17.1429" fill="white" transform="translate(0.429688 0.427734)"/>
</clipPath>
</defs>
</svg>
