<svg width="17" height="17" viewBox="0 0 17 17" fill="none" xmlns="http://www.w3.org/2000/svg">
<g clip-path="url(#clip0_4912_32)">
<path fill-rule="evenodd" clip-rule="evenodd" d="M9.14106 1.00354C9.18755 0.960381 9.28052 0.903935 9.35356 0.877373C9.89809 0.674833 10.4891 1.23597 10.3596 1.83362C10.3397 1.92991 10.2334 2.31175 10.1272 2.67698C10.0176 3.04554 9.92798 3.35433 9.92798 3.36761C9.92798 3.37757 10.8942 3.39085 12.0795 3.39417C13.8755 3.40261 13.963 3.46356 14.0532 3.52643C14.0694 3.53772 14.0857 3.54907 14.112 3.56018C14.5171 3.7262 14.8225 4.05823 14.9487 4.46331C15.0085 4.64593 15.0151 4.76878 15.0151 5.47933V6H15V11H15.0151V11.6883C15.0151 12.3989 15.0085 12.5217 14.9487 12.7043C14.8225 13.1094 14.5171 13.4414 14.112 13.6075C14.0879 13.6174 14.0725 13.6245 14.0563 13.6293C13.9546 13.6595 13.8259 13.5989 11.3325 13.6075L8.43716 13.6174L7.43442 14.8061C6.77368 15.593 6.39185 16.0213 6.30884 16.0678C6.00337 16.2405 5.6813 16.1873 5.42895 15.9283C5.12017 15.6129 5.11352 15.4369 5.36255 14.3977C5.38997 14.2825 5.41613 14.1729 5.43965 14.0743C5.50157 13.8149 5.54517 13.6322 5.54517 13.6274C5.54517 13.6207 5.10024 13.6141 4.55239 13.6141H3.56294L3.47329 13.5278C3.35044 13.4049 3.35708 13.2422 3.48325 13.1127L3.57954 13.0164H4.63872H5.69458L5.80747 12.525C5.82532 12.4489 5.84264 12.3747 5.85852 12.3066C5.89877 12.1341 5.92982 12.001 5.93696 11.9772C5.95024 11.9241 5.80415 11.9207 3.20435 11.9207H0.458447L0.362158 11.8244C0.226025 11.6883 0.239307 11.4858 0.395361 11.3662C0.435205 11.333 1.10591 11.3264 3.27407 11.3231H6.09634L6.18599 10.9346C6.23579 10.7188 6.27563 10.5328 6.27563 10.5162C6.27563 10.503 5.7311 10.493 5.06704 10.493C3.91489 10.493 3.85845 10.4897 3.77876 10.4266C3.73227 10.3901 3.68579 10.3203 3.67583 10.2705C3.65591 10.1676 3.71899 9.98499 3.78872 9.94183C3.81528 9.92522 4.27349 9.9053 4.81138 9.89534L5.79087 9.87874L4.96743 9.34085L4.14731 8.79964H2.15513H0.162939L0.0832519 8.71663C-0.032959 8.60374 -0.032959 8.39788 0.0832519 8.28499L0.162939 8.20198H1.81313C3.36704 8.20198 3.46001 8.19866 3.43677 8.14222C3.38696 8.01937 3.38032 7.70061 3.42017 7.5512C3.44673 7.46487 3.51313 7.32874 3.57622 7.25237L3.68579 7.10628H3.35044C3.02505 7.10628 3.01509 7.10296 2.9188 7.00999C2.79263 6.88382 2.78599 6.70784 2.90552 6.59163C2.9852 6.50862 2.99185 6.50862 3.60942 6.50862H4.23364L4.59224 6.10022L4.94751 5.69515L2.81919 5.67854L0.690869 5.66194L0.627783 5.58226C0.544775 5.48265 0.544775 5.27679 0.627783 5.17718L0.690869 5.09749L3.09477 5.08753L5.49868 5.08089L5.97017 4.54964C6.22915 4.25745 6.44165 4.01175 6.44165 4.00179C6.44165 3.99183 5.92368 3.98518 5.29282 3.98518H4.14399L4.0477 3.8889C3.94478 3.78597 3.92485 3.66643 3.99126 3.54358C4.00381 3.519 4.01406 3.49836 4.02833 3.48104C4.10459 3.38841 4.29569 3.39033 5.56841 3.38753H7.00278L8.02876 2.23206C8.59321 1.59788 9.09458 1.04339 9.14106 1.00354ZM9.75532 1.59124C9.7354 1.53811 9.69556 1.47835 9.66235 1.46175C9.62915 1.44183 9.59263 1.42854 9.58266 1.42854C9.54614 1.42854 4.09087 7.57112 4.02778 7.68401C3.96138 7.7969 3.97798 7.89651 4.07427 7.99944C4.12739 8.04925 4.71177 8.44769 5.37915 8.87933C6.04653 9.31429 6.63755 9.71936 6.69731 9.78577C6.82349 9.92522 6.90649 10.151 6.90649 10.3602C6.90649 10.4465 6.65415 11.5787 6.34204 12.8903C6.03325 14.1985 5.77759 15.3041 5.77759 15.3473C5.77759 15.4535 5.92036 15.5897 5.98677 15.5498C6.08306 15.4967 11.2727 9.29436 11.3026 9.2014C11.3192 9.13831 11.3159 9.08186 11.286 9.0221C11.2561 8.96565 10.7813 8.63362 9.97778 8.10237C9.28384 7.64417 8.68286 7.23577 8.64302 7.19925C8.59985 7.1594 8.53013 7.05315 8.48364 6.96019C8.46159 6.91653 8.44258 6.87892 8.42825 6.83961C8.33902 6.59484 8.43087 6.28405 9.09458 4.03831C9.69223 2.0096 9.7852 1.67425 9.75532 1.59124ZM14.3311 4.53968C14.2315 4.33714 14.0655 4.19104 13.8563 4.118C13.8446 4.11401 13.8337 4.10962 13.8221 4.10493C13.708 4.05902 13.5246 3.98518 11.8704 3.98518H9.74204L9.37016 5.24358C9.16431 5.93753 8.99829 6.53851 8.99829 6.58167C8.99829 6.62483 9.01821 6.68792 9.04145 6.72112C9.0647 6.75101 9.67231 7.16936 10.3928 7.64749C11.6645 8.49417 11.7043 8.52405 11.804 8.70003C11.8903 8.8594 11.9036 8.91585 11.9036 9.13167C11.9036 9.33421 11.887 9.41058 11.8206 9.53675C11.7741 9.62308 11.11 10.4366 10.3463 11.3463L8.95513 12.9998L11.4752 13.0098C13.6809 13.0151 13.8956 13.0732 14.0184 12.9921C14.0496 12.9715 14.0748 12.9419 14.1253 12.9002C14.1917 12.8438 14.2846 12.7242 14.3311 12.628L14.4174 12.4553V8.58382V4.71233L14.3311 4.53968Z" fill="#D92E15"/>
<path d="M2.06978 3.46641C1.94028 3.5793 1.94028 3.7918 2.06978 3.90469C2.15942 3.98105 2.18267 3.98438 2.69399 3.98438H3.22856L3.32485 3.88809C3.39126 3.82168 3.42114 3.75859 3.42114 3.68555C3.42114 3.6125 3.39126 3.54941 3.32485 3.48301L3.22856 3.38672H2.69399C2.18267 3.38672 2.15942 3.39004 2.06978 3.46641Z" fill="#D92E15"/>
<path d="M1.21341 6.5931C1.10716 6.69603 1.10052 6.91185 1.19681 7.00814C1.28978 7.10111 1.37942 7.11439 1.77454 7.10111C2.16966 7.09115 2.24603 7.0513 2.27923 6.8388C2.29583 6.74583 2.28255 6.70267 2.2095 6.61634L2.11985 6.51009H1.70814C1.31302 6.51009 1.28978 6.51341 1.21341 6.5931Z" fill="#D92E15"/>
<path d="M1.55815 9.93769C1.38218 10.0273 1.34565 10.2332 1.47847 10.3893L1.56479 10.4922H2.25874C2.956 10.4922 2.956 10.4922 3.03569 10.4092C3.09546 10.3527 3.1187 10.293 3.1187 10.2033C3.11538 10.0639 3.07554 9.99413 2.96265 9.93437C2.85972 9.87792 1.67104 9.88124 1.55815 9.93769Z" fill="#D92E15"/>
<path d="M1.49082 13.1119C1.42441 13.1783 1.39453 13.2414 1.39453 13.3145C1.39453 13.3875 1.42441 13.4506 1.49082 13.517L1.58711 13.6133H2.125H2.66289L2.75918 13.517C2.82559 13.4506 2.85547 13.3875 2.85547 13.3145C2.85547 13.2414 2.82559 13.1783 2.75918 13.1119L2.66289 13.0156H2.125H1.58711L1.49082 13.1119Z" fill="#D92E15"/>
</g>
<defs>
<clipPath id="clip0_4912_32">
<rect width="17" height="17" fill="white"/>
</clipPath>
</defs>
</svg>
