<svg width="25" height="25" viewBox="0 0 25 25" fill="none" xmlns="http://www.w3.org/2000/svg">
<g clip-path="url(#clip0_1256:2145)">
<path d="M17.1864 0C15.8536 0.092187 14.2958 0.945307 13.388 2.05624C12.5599 3.06404 11.8786 4.56091 12.1443 6.01559C13.6005 6.0609 15.1052 5.18747 15.977 4.05779C16.7926 3.00623 17.4098 1.51874 17.1864 0Z" fill="white"/>
<path d="M22.4548 8.38749C21.1751 6.78281 19.3767 5.85156 17.6782 5.85156C15.4361 5.85156 14.4876 6.92499 12.9298 6.92499C11.3236 6.92499 10.1033 5.85469 8.16422 5.85469C6.25954 5.85469 4.23143 7.01874 2.9455 9.00936C1.1377 11.8125 1.44707 17.0827 4.37674 21.5718C5.42517 23.178 6.82517 24.9843 8.6564 24.9999C10.2861 25.0155 10.7455 23.9546 12.9533 23.9436C15.1611 23.9311 15.5798 25.014 17.2064 24.9968C19.0392 24.9827 20.5157 22.9811 21.5641 21.3749C22.3157 20.2234 22.5954 19.6437 23.1782 18.3437C18.9392 16.7296 18.2595 10.7015 22.4548 8.38749Z" fill="white"/>
</g>
<defs>
<clipPath id="clip0_1256:2145">
<rect width="25" height="25" fill="white"/>
</clipPath>
</defs>
</svg>
