<svg width="19" height="19" viewBox="0 0 19 19" fill="none" xmlns="http://www.w3.org/2000/svg">
<path fill-rule="evenodd" clip-rule="evenodd" d="M19 19H0V9.18772C0 4.12741 3.94827 0 8.78896 0H19V19Z" fill="white"/>
<path fill-rule="evenodd" clip-rule="evenodd" d="M13.3539 13.405V9.66513C13.3519 8.76538 12.9603 7.90301 12.2649 7.26679C11.5694 6.63057 10.6268 6.27234 9.64332 6.27051H9.32509C8.35665 6.27294 7.42864 6.62597 6.74385 7.25246C6.05906 7.87895 5.67317 8.72794 5.67052 9.61393V9.71691C5.67334 10.6936 6.0987 11.6296 6.85363 12.3203C7.60856 13.0109 8.63166 13.4001 9.69929 13.4027L13.3539 13.405ZM15.2255 15.1178H9.7018C8.13762 15.1152 6.63832 14.5456 5.53227 13.5337C4.42623 12.5219 3.80361 11.1502 3.80078 9.71922V9.61623C3.80294 8.27598 4.38586 6.9912 5.42175 6.04351C6.45765 5.09581 7.862 4.56253 9.32698 4.56055H9.6452C11.1241 4.56313 12.5417 5.10177 13.5875 6.0585C14.6333 7.01524 15.222 8.31211 15.2249 9.66513L15.2255 15.1178Z" fill="black"/>
</svg>
