<svg width="19" height="19" viewBox="0 0 19 19" fill="none" xmlns="http://www.w3.org/2000/svg">
<path d="M3.59002 4.87268L2.98514 5.94685C2.69272 5.94625 2.04282 5.94629 1.68394 5.94629C1.0946 5.94629 0.615633 6.24146 0.46367 6.69735C0.394782 6.90549 0.351977 7.12137 0.336236 7.34004C0.334548 7.37481 0.340029 7.40955 0.352337 7.44211C0.364645 7.47467 0.383518 7.50435 0.407783 7.5293C0.432158 7.55439 0.461397 7.57424 0.493709 7.58764C0.526021 7.60104 0.560728 7.60771 0.595705 7.60723H0.596039L1.49676 7.60883C1.1041 7.90782 0.851463 8.40831 0.851463 8.98484C0.851453 8.99601 0.852135 9.00716 0.853504 9.01824L1.27046 12.3242C1.27622 12.5507 1.35989 12.7683 1.50737 12.9403C1.65484 13.1123 1.85711 13.2282 2.08008 13.2685V14.3271C2.08055 14.4923 2.14588 14.6506 2.262 14.768C2.37811 14.8855 2.53572 14.9526 2.70084 14.9549H3.78815C3.95421 14.9529 4.11294 14.8862 4.23056 14.7689C4.34818 14.6517 4.41542 14.4932 4.41797 14.3271V13.285H13.7158C13.4138 13.6101 13.1918 14.0012 13.0675 14.4271C12.9431 14.853 12.9198 15.3021 12.9994 15.7386C13.0791 16.1752 13.2594 16.5871 13.5261 16.9417C13.7928 17.2963 14.1386 17.5839 14.5359 17.7814C14.5763 17.8012 14.6209 17.8104 14.6658 17.8084C14.7107 17.8063 14.7543 17.793 14.7927 17.7697C14.8309 17.7466 14.8625 17.7141 14.8848 17.6755C14.907 17.6368 14.9191 17.5931 14.9199 17.5485V16.1977L15.804 15.6062L16.7119 16.2429L16.7065 17.5491C16.7062 17.5934 16.7173 17.6371 16.7386 17.6759C16.76 17.7147 16.7909 17.7473 16.8285 17.7708C16.8661 17.7942 16.9091 17.8077 16.9533 17.8098C16.9976 17.8119 17.0416 17.8027 17.0813 17.7829C17.5655 17.5401 17.9708 17.1648 18.25 16.7005C18.5292 16.2363 18.6707 15.7023 18.6581 15.1607C18.6455 14.6191 18.4792 14.0923 18.1788 13.6416C17.8783 13.1908 17.456 12.8347 16.9609 12.6147V6.38489C17.4559 6.16512 17.8783 5.80918 18.1788 5.35856C18.4792 4.90794 18.6454 4.38119 18.6579 3.83974C18.6705 3.29828 18.5288 2.76441 18.2496 2.30037C17.9703 1.83632 17.5648 1.46122 17.0805 1.21878C17.0407 1.19896 16.9965 1.18959 16.9521 1.19154C16.9077 1.19349 16.8644 1.2067 16.8265 1.22993C16.7886 1.25316 16.7572 1.28565 16.7353 1.32435C16.7133 1.36305 16.7016 1.40668 16.7012 1.45116V2.80194L15.8171 3.39328L14.9092 2.75663L14.9146 1.45038C14.9149 1.40609 14.9038 1.36246 14.8824 1.32366C14.8611 1.28487 14.8301 1.25219 14.7925 1.22875C14.755 1.20531 14.712 1.19188 14.6678 1.18975C14.6235 1.18762 14.5795 1.19686 14.5398 1.21659C14.13 1.41747 13.7748 1.71442 13.5045 2.08214C13.2342 2.44985 13.0567 2.87745 12.9873 3.32852C12.9006 3.31296 12.8129 3.30428 12.7249 3.30254H5.59697C4.79418 3.30254 4.08168 3.8633 3.59002 4.87268ZM0.894732 7.09282C0.910985 7.01486 0.931676 6.9379 0.956705 6.8623C1.03549 6.62591 1.3278 6.46705 1.68405 6.46705C1.94856 6.46705 2.37142 6.46771 2.69238 6.46831L2.34103 7.09097L0.894732 7.09282ZM3.89844 14.3271C3.89605 14.3554 3.88358 14.3819 3.86331 14.4018C3.84303 14.4216 3.81629 14.4335 3.78796 14.4354H2.70084C2.67351 14.4332 2.64798 14.4209 2.62925 14.4009C2.61052 14.3808 2.59995 14.3545 2.59961 14.3271V13.285H3.89844V14.3271ZM2.24759 12.7654C2.12647 12.7651 2.01042 12.7167 1.92487 12.631C1.83932 12.5453 1.79123 12.4291 1.79115 12.308C1.79114 12.2969 1.79045 12.2858 1.78907 12.2748L1.37107 8.97074C1.37816 8.28452 1.84763 7.85954 2.31791 7.83178C2.33267 7.83238 2.34746 7.83174 2.36211 7.82989H14.623V9.3159C14.252 9.44374 13.9213 9.82389 13.9213 10.2718C13.9213 10.7197 14.252 11.0999 14.623 11.2277V12.6147C14.5488 12.659 14.4481 12.6912 14.3564 12.7654H2.24759ZM11.2275 7.31036C11.3277 6.75372 11.8302 6.29642 12.4336 6.29642C13.037 6.29642 13.5395 6.75372 13.6396 7.31036H11.2275ZM14.623 9.89488V10.6487C14.5488 10.5602 14.4409 10.4243 14.4409 10.2718C14.4409 10.1193 14.5488 9.98331 14.623 9.89488ZM14.3922 1.91521L14.39 2.89063C14.39 2.93259 14.4001 2.97394 14.4195 3.01115C14.4389 3.04836 14.467 3.08033 14.5014 3.10434L15.6683 3.92053C15.7111 3.95054 15.762 3.96693 15.8143 3.96753C15.8666 3.96813 15.9179 3.95293 15.9614 3.9239L17.109 3.15708C17.1441 3.13314 17.1726 3.10086 17.1921 3.06313C17.2116 3.0254 17.2215 2.98342 17.2207 2.94095V1.91707C17.8144 2.3544 18.1444 3.03443 18.1444 3.77684C18.1415 4.25362 17.994 4.71832 17.7214 5.10948C17.4488 5.50065 17.0639 5.79984 16.6175 5.96752C16.5671 5.98569 16.5233 6.01862 16.4919 6.06203C16.4605 6.10545 16.4429 6.15732 16.4414 6.21088V12.7887C16.4433 12.8425 16.4613 12.8944 16.4931 12.9378C16.5248 12.9812 16.5689 13.014 16.6195 13.0321C17.0656 13.1999 17.4501 13.4992 17.7223 13.8904C17.9945 14.2816 18.1415 14.7462 18.1438 15.2228C18.1455 15.5831 18.0633 15.939 17.9038 16.2621C17.7442 16.5852 17.5116 16.8667 17.2244 17.0844L17.2289 16.1089C17.2292 16.067 17.2193 16.0257 17.2 15.9885C17.1808 15.9513 17.1529 15.9193 17.1186 15.8952L15.9523 15.079C15.9095 15.0491 15.8587 15.0327 15.8065 15.0321C15.7542 15.0315 15.7031 15.0467 15.6596 15.0756L14.5122 15.8425C14.4771 15.8664 14.4485 15.8987 14.429 15.9364C14.4094 15.9742 14.3996 16.0162 14.4004 16.0587V17.0826C13.8066 16.6452 13.4767 15.9652 13.4767 15.2228C13.4776 14.8302 13.5769 14.444 13.7655 14.0997C13.954 13.7553 14.2259 13.4637 14.5562 13.2516C14.5663 13.2459 14.5759 13.2395 14.585 13.2324C14.7107 13.1524 14.8442 13.0853 14.9833 13.032C15.0318 13.013 15.0732 12.9793 15.1017 12.9358C15.1303 12.8922 15.1445 12.8408 15.1426 12.7887V6.21088C15.1445 6.15878 15.1301 6.10739 15.1015 6.06379C15.073 6.0202 15.0315 5.98656 14.983 5.96752C14.5918 5.82016 14.2471 5.57066 13.985 5.24496C13.7229 4.91927 13.5528 4.52928 13.4925 4.11558C13.4322 3.70187 13.4838 3.27957 13.6421 2.89259C13.8003 2.50561 14.0593 2.1681 14.3922 1.91517L14.3922 1.91521ZM12.9453 3.85017C12.9756 4.94452 13.6582 5.93868 14.623 6.38474V7.31036H14.1646C14.1132 6.88743 13.9087 6.49795 13.5898 6.21544C13.2709 5.93294 12.8596 5.77696 12.4336 5.77696C12.0076 5.77696 11.5963 5.93294 11.2774 6.21544C10.9585 6.49795 10.754 6.88743 10.7026 7.31036H2.80701L4.04647 5.12005C4.0491 5.11534 4.05163 5.10855 4.05389 5.10372C4.28567 4.62579 4.79433 3.82208 5.59697 3.82208H12.7249C12.7992 3.82357 12.8731 3.83299 12.9453 3.85017Z" fill="white"/>
<path d="M3.31836 9.26953C3.12019 9.26953 2.92647 9.3283 2.7617 9.43839C2.59693 9.54849 2.46851 9.70497 2.39268 9.88806C2.31684 10.0711 2.297 10.2726 2.33566 10.467C2.37432 10.6613 2.46975 10.8399 2.60987 10.98C2.75 11.1201 2.92853 11.2155 3.12289 11.2542C3.31725 11.2929 3.51871 11.273 3.70179 11.1972C3.88487 11.1213 4.04136 10.9929 4.15145 10.8281C4.26155 10.6634 4.32031 10.4697 4.32031 10.2715C4.32004 10.0058 4.21439 9.75115 4.02654 9.5633C3.8387 9.37546 3.58401 9.26981 3.31836 9.26953ZM3.31836 10.7539C3.22295 10.7539 3.12967 10.7256 3.05034 10.6726C2.97101 10.6196 2.90917 10.5443 2.87266 10.4561C2.83615 10.368 2.82659 10.271 2.84521 10.1774C2.86382 10.0838 2.90977 9.99783 2.97724 9.93036C3.0447 9.8629 3.13066 9.81695 3.22424 9.79833C3.31782 9.77972 3.41482 9.78927 3.50297 9.82579C3.59113 9.8623 3.66647 9.92413 3.71948 10.0035C3.77249 10.0828 3.80078 10.1761 3.80078 10.2715C3.8006 10.3994 3.74972 10.5219 3.65928 10.6124C3.56884 10.7028 3.44623 10.7536 3.31836 10.7537V10.7539Z" fill="white"/>
<path d="M5.69336 10.8359H12.5673C12.6091 10.8342 12.6499 10.8228 12.6866 10.8026C12.7232 10.7825 12.7547 10.7541 12.7786 10.7197C12.8024 10.6853 12.8179 10.6459 12.8239 10.6045C12.83 10.563 12.8263 10.5208 12.8132 10.4811L12.5762 9.79083C12.4133 9.31212 11.8897 8.94336 11.3837 8.94336H6.8583C6.35112 8.94336 5.83037 9.31252 5.67306 9.79465L5.44644 10.4846C5.4337 10.5245 5.43038 10.5668 5.43674 10.6082C5.4431 10.6496 5.45897 10.689 5.4831 10.7232C5.50691 10.7571 5.53833 10.785 5.57485 10.8045C5.61136 10.8241 5.65195 10.8348 5.69336 10.8359ZM6.16695 9.96346C6.25434 9.69631 6.57719 9.46282 6.8583 9.46282H11.3837C11.666 9.46282 11.9934 9.69661 12.0844 9.9638L12.2046 10.3163H6.05143L6.16695 9.96346Z" fill="white"/>
<path d="M13.472 11.207H4.99414C4.92525 11.207 4.85917 11.2344 4.81046 11.2831C4.76174 11.3318 4.73438 11.3979 4.73438 11.4668C4.73438 11.5357 4.76174 11.6018 4.81046 11.6505C4.85917 11.6992 4.92525 11.7266 4.99414 11.7266H13.472C13.5409 11.7266 13.607 11.6992 13.6557 11.6505C13.7044 11.6018 13.7318 11.5357 13.7318 11.4668C13.7318 11.3979 13.7044 11.3318 13.6557 11.2831C13.607 11.2344 13.5409 11.207 13.472 11.207Z" fill="white"/>
</svg>
