<svg width="15" height="15" viewBox="0 0 15 15" fill="none" xmlns="http://www.w3.org/2000/svg">
<path d="M14.0625 1.58099C13.9365 1.60443 13.7783 1.67767 13.6787 1.76556C13.6377 1.80365 11.7158 3.99213 9.4043 6.63178L5.20312 11.4335L5.12988 11.3456C5.08594 11.2958 4.20703 10.3554 3.17285 9.25092C1.67871 7.6601 1.2627 7.23236 1.15137 7.1767C0.958008 7.08002 0.626953 7.07416 0.451172 7.16791C0.134766 7.3349 0 7.55463 0 7.8974C0 8.07025 0.0146484 8.13471 0.0791016 8.25775C0.134766 8.36029 0.884766 9.1806 2.44629 10.8447C4.98926 13.5546 4.84863 13.4228 5.23242 13.4228C5.37891 13.4228 5.45508 13.4052 5.58691 13.3408C5.74512 13.2617 6.04395 12.9277 10.3184 8.04389C13.6729 4.21185 14.8945 2.79681 14.9385 2.69135C15.0205 2.50092 15.0205 2.21088 14.9385 2.03803C14.8682 1.88568 14.7129 1.71869 14.5811 1.65131C14.4727 1.59271 14.2061 1.55756 14.0625 1.58099Z" fill="white"/>
</svg>
