<svg width="26" height="26" viewBox="0 0 26 26"  xmlns="http://www.w3.org/2000/svg">
<g clip-path="url(#clip0_1761:9233)">
<path d="M15.382 13.0214L25.5059 2.89722C26.1648 2.23869 26.1648 1.17392 25.5059 0.515387C24.8474 -0.14315 23.7826 -0.14315 23.1241 0.515387L12.9999 10.6396L2.87597 0.515387C2.21713 -0.14315 1.15267 -0.14315 0.494135 0.515387C-0.164712 1.17392 -0.164712 2.23869 0.494135 2.89722L10.618 13.0214L0.494135 23.1456C-0.164712 23.8041 -0.164712 24.8689 0.494135 25.5275C0.822324 25.8559 1.25384 26.021 1.68505 26.021C2.11627 26.021 2.54748 25.8559 2.87597 25.5275L12.9999 15.4033L23.1241 25.5275C23.4526 25.8559 23.8838 26.021 24.315 26.021C24.7462 26.021 25.1774 25.8559 25.5059 25.5275C26.1648 24.8689 26.1648 23.8041 25.5059 23.1456L15.382 13.0214Z"/>
</g>
<defs>
<clipPath id="clip0_1761:9233">
<rect width="26" height="26"/>
</clipPath>
</defs>
</svg>
