<svg width="17" height="17" viewBox="0 0 17 17" fill="none" xmlns="http://www.w3.org/2000/svg">
<path d="M10.0307 1.09279C9.63223 1.2422 9.34004 1.50783 9.15742 1.88966C9.06445 2.08224 9.04785 2.15197 9.03789 2.44748C9.02793 2.70314 9.03789 2.82267 9.08105 2.95549C9.11094 3.04845 9.13086 3.13146 9.1209 3.14142C9.11426 3.15138 8.97148 3.19455 8.80547 3.23771C7.8127 3.50334 6.79004 4.08107 6.05293 4.79162L5.88359 4.95431L5.38223 4.53595C5.10996 4.30685 4.87754 4.11759 4.8709 4.11759C4.85098 4.11759 4.2168 4.87131 4.2168 4.89455C4.2168 4.90451 4.44258 5.10041 4.71816 5.32951L5.21621 5.75119L5.15645 5.83752C4.99043 6.08986 4.78457 6.45842 4.66504 6.71408L4.53223 7.00295L2.26777 7.00627H0V7.50431V8.00236H2.10508H4.21016L4.18359 8.10861C4.15371 8.21486 4.05078 8.88556 4.05078 8.96193C4.05078 8.98849 3.6291 8.99845 2.52344 8.99845H0.996094V9.4965V9.99455H2.52344C3.6291 9.99455 4.05078 10.0045 4.05078 10.0311C4.05078 10.1074 4.15371 10.7781 4.18359 10.8811L4.21016 10.9906H3.10117H1.99219V11.4887V11.9867H3.26387L4.53223 11.9901L4.69824 12.342C5.59141 14.2379 7.47402 15.6092 9.59902 15.9213C10.0639 15.9877 10.9902 15.9877 11.4518 15.918C13.5369 15.6125 15.3166 14.3442 16.2828 12.4815C16.7875 11.5086 17 10.6188 17 9.4965C17 8.87228 16.9469 8.42404 16.8141 7.88615C16.658 7.27521 16.3459 6.54806 16.0238 6.04338C15.9475 5.92384 15.8744 5.81095 15.8611 5.78771C15.8445 5.76447 16.0172 5.59845 16.3359 5.32951C16.6082 5.10041 16.834 4.90451 16.834 4.89455C16.834 4.87131 16.1998 4.11759 16.1799 4.11759C16.1732 4.11759 15.9408 4.30685 15.6686 4.53595L15.1672 4.95431L14.9979 4.79162C14.2607 4.08107 13.2381 3.50334 12.2453 3.23771C12.0793 3.19455 11.9365 3.15138 11.9299 3.14142C11.9199 3.13146 11.9398 3.04845 11.9697 2.95549C12.0129 2.82267 12.0229 2.70314 12.0129 2.44748C12.0029 2.14533 11.9863 2.08224 11.8867 1.87638C11.7406 1.57091 11.4783 1.30861 11.1729 1.16252C10.957 1.05627 10.9105 1.0463 10.5752 1.03966C10.2764 1.0297 10.1768 1.03966 10.0307 1.09279ZM10.7711 2.12209C10.9139 2.21838 10.9902 2.35451 10.9902 2.52384C10.9902 2.69318 10.9139 2.82931 10.7711 2.9256C10.5686 3.05842 10.2664 2.98537 10.1236 2.76955C9.99082 2.56701 10.0639 2.26486 10.2797 2.12209C10.3395 2.08556 10.4357 2.059 10.5254 2.059C10.615 2.059 10.7113 2.08556 10.7711 2.12209ZM11.0135 4.06447C11.8701 4.11427 12.9027 4.49943 13.7129 5.07384C14.1146 5.35939 14.6625 5.90724 14.948 6.309C15.2436 6.72404 15.5689 7.36486 15.7184 7.83302C15.8977 8.3842 15.9707 8.86896 15.9707 9.4965C15.9707 10.4063 15.7947 11.1533 15.3863 11.9535C15.1041 12.5047 14.802 12.9231 14.377 13.3481C13.341 14.384 11.9863 14.9451 10.5254 14.9451C9.37324 14.9451 8.2875 14.5965 7.33789 13.9192C6.93613 13.6336 6.38828 13.0858 6.10273 12.684C5.63125 12.0233 5.2793 11.1799 5.14648 10.4029C5.05684 9.88166 5.05684 9.11135 5.14648 8.59006C5.2793 7.8131 5.63125 6.96974 6.10273 6.309C7.0125 5.02736 8.57637 4.15744 10.1436 4.05451C10.3461 4.04123 10.5553 4.03459 10.6084 4.04123C10.6648 4.04455 10.8441 4.05783 11.0135 4.06447Z" fill="#D92E15"/>
<path d="M10.0273 7.39491L10.0307 9.7789L11.8934 11.1734C12.916 11.9404 13.7727 12.5713 13.7959 12.5779C13.859 12.5912 14.3139 11.9537 14.5064 11.5885C14.7057 11.2066 14.885 10.682 14.958 10.2803C15.0244 9.89843 15.0244 9.1414 14.958 8.733C14.6592 6.89023 13.1318 5.36288 11.2891 5.06405C11.1098 5.03749 10.7678 5.01425 10.5021 5.01425H10.0273V7.39491ZM11.4086 6.14648C12.3682 6.3955 13.2115 7.09941 13.6498 8.01913C13.9088 8.56034 13.9619 8.80937 13.9619 9.49667C13.9619 10.0014 13.952 10.1142 13.8855 10.3566C13.7826 10.7351 13.5967 11.1369 13.5402 11.1037C13.517 11.0904 12.9393 10.6588 12.2619 10.1508L11.0234 9.22441V7.65058C11.0234 6.15312 11.0268 6.07675 11.0832 6.07675C11.1164 6.07675 11.2625 6.10663 11.4086 6.14648Z" fill="#D92E15"/>
</svg>
