<svg width="17" height="17" viewBox="0 0 17 17" fill="none" xmlns="http://www.w3.org/2000/svg">
<path d="M0.654102 2.56029C0.391797 2.62337 0.175977 2.79935 0.0630859 3.03841C0.00332031 3.16459 0 3.34056 0 7.03275V10.8943L0.0830078 10.974C0.149414 11.0437 0.195898 11.057 0.365234 11.057H0.564453V11.5783C0.564453 12.0331 0.574414 12.1228 0.63418 12.2523C0.713867 12.4316 0.800195 12.5279 0.979492 12.6474C1.10234 12.7271 1.14551 12.7337 1.55059 12.7437L1.98887 12.757L2.02207 12.9197C2.13828 13.4642 2.55664 13.9921 3.07129 14.2511C3.61582 14.5267 4.32305 14.5267 4.86094 14.2544C5.36563 13.9988 5.78398 13.4675 5.91016 12.923L5.95 12.7503H8.5H11.05L11.0898 12.923C11.1828 13.3314 11.4916 13.8029 11.8336 14.0652C12.4146 14.5101 13.2646 14.5865 13.9287 14.2511C14.4434 13.9921 14.8617 13.4642 14.9779 12.9163L15.0145 12.7503H15.6652C16.0338 12.7503 16.3758 12.7337 16.4488 12.7138C16.6215 12.6673 16.917 12.3718 16.9635 12.1992C16.9867 12.1128 17 11.3857 17 9.99447C17 8.04877 16.9934 7.91263 16.9369 7.78646C16.9037 7.71341 16.399 7.11576 15.8146 6.45834C14.9514 5.48548 14.7223 5.24642 14.5895 5.18001L14.4268 5.09701L13.0256 5.08705L11.6211 5.07709V4.16068C11.6211 3.54974 11.6078 3.20111 11.5813 3.11478C11.5281 2.9388 11.2924 2.67982 11.1164 2.60345C10.9803 2.54369 10.7678 2.54037 5.87695 2.53373C2.95176 2.53041 0.727148 2.54369 0.654102 2.56029ZM10.9371 3.21771L11.0234 3.2974V6.88002V10.4593H5.81055H0.597656V6.88002V3.2974L0.674023 3.23099C0.713867 3.19447 0.770313 3.15462 0.796875 3.14466C0.823438 3.1347 3.09785 3.12806 5.85039 3.13138L10.8508 3.13802L10.9371 3.21771ZM12.75 7.19877V8.71947L12.8363 8.89212C12.8828 8.98841 12.9758 9.10795 13.0422 9.16439C13.2813 9.36029 13.3145 9.36361 14.9314 9.36361H16.4023V10.6818C16.4023 11.99 16.4023 11.9999 16.3293 12.0763C16.2596 12.1494 16.243 12.1527 15.632 12.1527H15.0078L14.9879 12.0597C14.865 11.482 14.4666 10.9574 13.9453 10.6917C13.5768 10.5025 13.4605 10.4826 12.5109 10.4693L11.6211 10.4527V8.06537V5.67806H12.1855H12.75V7.19877ZM14.3404 5.75111C14.3969 5.79427 14.885 6.32552 15.4229 6.93314L16.4023 8.04212V8.40404V8.76595H14.958H13.5104L13.4307 8.68295L13.3477 8.60326V7.139V5.67806H13.7926C14.1977 5.67806 14.2441 5.6847 14.3404 5.75111ZM2.49355 11.1167C2.47695 11.1499 2.43711 11.1964 2.41055 11.2197C2.29766 11.316 2.10176 11.7177 2.02539 12.0099L1.98887 12.1527H1.65352C1.35137 12.1527 1.3082 12.146 1.23848 12.0796C1.16543 12.0099 1.16211 11.9867 1.16211 11.5318V11.057H1.84277C2.49355 11.057 2.52344 11.0603 2.49355 11.1167ZM4.34961 11.13C4.72148 11.2429 5.06016 11.5318 5.21953 11.8771C5.7707 13.0492 4.54883 14.271 3.37676 13.7199C2.97168 13.5306 2.65293 13.099 2.58984 12.6607C2.45703 11.6779 3.40664 10.8478 4.34961 11.13ZM6.77344 11.6048V12.1527H6.3584H5.94668L5.91016 12.0099C5.83379 11.7177 5.63789 11.316 5.525 11.2197C5.49844 11.1964 5.45859 11.1499 5.44199 11.1167C5.41211 11.0603 5.44199 11.057 6.09277 11.057H6.77344V11.6048ZM9.33008 11.6048V12.1527H8.35059H7.37109V11.6048V11.057H8.35059H9.33008V11.6048ZM11.558 11.1167C11.5414 11.1499 11.5016 11.1964 11.475 11.2197C11.3621 11.316 11.1662 11.7177 11.0898 12.0099L11.0533 12.1527H10.4922H9.92773V11.6048V11.057H10.7578C11.5547 11.057 11.5879 11.0603 11.558 11.1167ZM13.5004 11.1632C13.8689 11.296 14.1313 11.5417 14.2939 11.897C14.7455 12.8798 13.9121 13.9921 12.8396 13.8427C12.2486 13.763 11.7373 13.2517 11.6543 12.6607C11.5148 11.638 12.5375 10.8079 13.5004 11.1632Z" fill="#D92E15"/>
<path d="M3.79394 11.625C3.38555 11.7047 3.11328 12.04 3.11328 12.4684C3.11328 12.9631 3.46855 13.3184 3.96328 13.3184C4.21894 13.3184 4.38828 13.2553 4.56093 13.0893C4.74023 12.9166 4.8166 12.7307 4.8166 12.4684C4.8166 11.9106 4.34179 11.5188 3.79394 11.625ZM4.13926 12.2924C4.23886 12.3854 4.23886 12.5381 4.14258 12.641C3.99316 12.8037 3.71758 12.6875 3.71758 12.4617C3.71758 12.2426 3.97324 12.1363 4.13926 12.2924Z" fill="#D92E15"/>
<path d="M12.8609 11.625C12.4525 11.7047 12.1836 12.0367 12.1836 12.4684C12.1836 12.7307 12.26 12.9166 12.4393 13.0893C12.6119 13.2553 12.7813 13.3184 13.0369 13.3184C13.5316 13.3184 13.8902 12.9631 13.8902 12.4684C13.8902 11.9139 13.4055 11.5187 12.8609 11.625ZM13.2162 12.2857C13.3623 12.4318 13.2461 12.7174 13.0369 12.7174C12.8178 12.7174 12.7049 12.4584 12.8576 12.2957C12.9473 12.1994 13.1232 12.1928 13.2162 12.2857Z" fill="#D92E15"/>
</svg>
