<svg width="26" height="26" viewBox="0 0 26 26" fill="none" xmlns="http://www.w3.org/2000/svg">
<path d="M5.48945 0.481564C4.69219 0.705 4.08281 1.21281 3.56484 2.09641C2.11758 4.54406 1.21367 7.19992 0.802344 10.2062C0.700781 10.9527 0.685547 11.2523 0.685547 12.9991C0.685547 14.746 0.700781 15.0456 0.802344 15.7921C1.14766 18.3261 1.83828 20.6011 2.89961 22.6882C3.75273 24.364 4.17422 24.9073 4.91562 25.278C5.77383 25.7046 6.29688 25.6995 8.35352 25.2425C9.89219 24.8972 10.0547 24.8464 10.273 24.6382C10.532 24.3945 10.6336 24.1355 10.6336 23.7394C10.6285 23.3839 10.6234 23.3687 9.55195 21.0226C8.46016 18.6308 8.34336 18.4226 8.0082 18.2448C7.92695 18.2042 7.39375 18.0722 6.825 17.9452C5.53516 17.6659 5.34219 17.5796 5.12383 17.153C5.00195 16.9144 4.80391 15.9241 4.69219 14.9796C4.57031 13.9691 4.57031 12.0292 4.69219 11.0187C4.80391 10.0741 5.00195 9.08391 5.12383 8.84524C5.34219 8.41867 5.53516 8.33235 6.825 8.05305C7.39375 7.9261 7.92695 7.79406 8.0082 7.75344C8.34336 7.5757 8.46016 7.3675 9.55195 4.9757C10.6234 2.62961 10.6285 2.61438 10.6336 2.25891C10.6336 1.86281 10.532 1.60383 10.273 1.36008C10.0598 1.15188 9.89219 1.1011 8.35352 0.755781C7.14492 0.486641 6.84531 0.43586 6.34766 0.420626C5.94141 0.410469 5.68242 0.430782 5.48945 0.481564Z" fill="#d92e15"/>
<path d="M9.49648 6.89062C9.18672 7.58633 9.06992 7.78945 8.84648 8.0332L8.57227 8.32773L11.6141 10.3438C14.4832 12.248 14.666 12.3648 14.9098 12.3801L15.1637 12.4004L19.6832 9.39414C22.1664 7.74375 24.218 6.37266 24.2383 6.34727C24.2637 6.32695 24.152 6.25586 23.9844 6.18984L23.6898 6.06797L16.7836 6.05781L9.87734 6.04258L9.49648 6.89062Z" fill="#d92e15"/>
<path d="M21.0645 9.35759C19.0027 10.7338 17.327 11.8713 17.332 11.8865C17.3371 11.9017 19.0535 13.5217 21.1457 15.4818C24.0402 18.1935 24.9594 19.0314 25.0102 18.9908C25.0457 18.9603 25.132 18.808 25.193 18.6455L25.3149 18.356V12.9732V7.5904L25.1371 7.23493C25.0406 7.04196 24.9238 6.87438 24.8832 6.86931C24.8426 6.86423 23.1211 7.98649 21.0645 9.35759Z" fill="#d92e15"/>
<path d="M6.78389 8.83594C6.12373 8.97812 5.90029 9.04922 5.83936 9.13047C5.67686 9.32852 5.4585 10.6844 5.37217 12.0453C5.32646 12.7816 5.32646 13.2184 5.37217 13.9496C5.4585 15.3055 5.67686 16.6715 5.83428 16.8695C5.91045 16.9609 6.57061 17.159 6.82959 17.1641C6.89561 17.1641 7.92139 16.2348 9.72412 14.5488C11.2628 13.1066 12.5222 11.9133 12.5323 11.8879C12.5425 11.8523 7.71826 8.62773 7.6624 8.63789C7.65225 8.63789 7.25615 8.7293 6.78389 8.83594Z" fill="#d92e15"/>
<path d="M10.506 14.8332C9.04353 16.2043 7.84001 17.3469 7.82985 17.3723C7.8197 17.3977 7.85524 17.418 7.9111 17.418C8.10915 17.418 8.62712 17.7277 8.87087 17.9969C9.06384 18.2051 9.20095 18.4539 9.49548 19.109L9.87634 19.957L16.7826 19.9418L23.6888 19.9316L23.9732 19.8148C24.1256 19.7539 24.2931 19.6727 24.3388 19.6371C24.415 19.5813 23.9681 19.1445 20.581 15.9707C18.4685 13.9852 16.7064 12.3602 16.6759 12.35C16.6404 12.3398 16.4017 12.4719 16.1478 12.6445C15.5131 13.0711 15.3252 13.1523 14.9392 13.1523C14.5482 13.1523 14.4111 13.0965 13.7814 12.675C13.5072 12.4922 13.2533 12.3398 13.2228 12.3398C13.1924 12.3398 11.9685 13.4621 10.506 14.8332Z" fill="#d92e15"/>
</svg>
