<svg width="581" height="506" viewBox="0 0 581 506" fill="none" xmlns="http://www.w3.org/2000/svg">
<path d="M566.983 452.078H0" stroke="#A1A1A1" stroke-width="1.11" stroke-miterlimit="10"/>
<path d="M520.92 338.835C519.982 337.344 518.955 335.911 517.844 334.545C517.169 333.576 516.618 332.522 515.98 331.48C515.023 329.525 513.646 327.805 511.948 326.443C510.44 325.376 508.602 324.861 507.143 323.746C506.488 323.208 505.87 322.626 505.292 322.005L504.851 321.576C501.48 318.463 496.712 317.495 492.201 316.674C491.52 316.484 490.799 316.484 490.118 316.674C489.547 317.09 489.095 317.647 488.806 318.292C486.612 322.324 484.357 326.639 484.651 331.211C484.651 331.419 484.651 331.627 484.651 331.823C484.767 332.664 484.829 333.512 484.835 334.361C484.835 336.199 484.026 337.952 483.903 339.791C483.899 341.965 484.368 344.115 485.276 346.091C485.705 347.219 486.146 348.334 486.502 349.474C486.863 351.199 487.325 352.902 487.887 354.573C489.143 357.311 491.396 359.468 494.187 360.603C496.756 361.567 499.453 362.146 502.191 362.319C504.031 362.495 505.888 362.291 507.646 361.719C508.773 361.388 509.876 360.996 510.98 360.567C512.009 359.966 513.014 359.341 513.995 358.691C515.545 357.69 516.872 356.38 517.893 354.843C519.482 352.59 520.721 350.111 521.57 347.488C522.461 344.626 522.229 341.532 520.92 338.835Z" fill="#DBDBDB"/>
<path d="M494.506 326.158C494.506 326.158 519.866 361.545 518.481 423.689" stroke="black" stroke-width="0.49" stroke-miterlimit="10"/>
<path d="M502.607 374.455C501.8 373.652 500.944 372.899 500.045 372.2C499.482 371.697 498.955 371.121 498.428 370.557C497.543 369.467 496.43 368.584 495.167 367.971C494.076 367.517 492.838 367.468 491.76 366.978C491.274 366.728 490.803 366.45 490.35 366.145L490.007 365.948C487.445 364.478 484.307 364.563 481.353 364.723C480.897 364.711 480.445 364.816 480.042 365.029C479.739 365.378 479.536 365.801 479.453 366.255C478.669 369.099 477.872 372.138 478.718 374.97C478.718 375.092 478.804 375.215 478.84 375.35C479.035 375.857 479.195 376.377 479.318 376.906C479.551 378.132 479.319 379.284 479.527 380.449C479.834 381.819 480.441 383.104 481.304 384.212C481.733 384.861 482.174 385.499 482.53 386.161C483.007 387.192 483.543 388.195 484.136 389.164C485.32 390.701 487.048 391.728 488.965 392.032C490.72 392.271 492.5 392.246 494.248 391.958C495.425 391.795 496.559 391.4 497.582 390.794C498.231 390.414 498.881 390.009 499.506 389.568C500.07 389.053 500.609 388.514 501.124 387.962C501.953 387.104 502.6 386.087 503.024 384.972C503.681 383.333 504.094 381.607 504.25 379.848C504.408 377.907 503.82 375.979 502.607 374.455Z" fill="#DBDBDB"/>
<path d="M484.185 370.312C484.185 370.312 505.23 388.87 513.357 428.081" stroke="black" stroke-width="0.49" stroke-miterlimit="10"/>
<path d="M539.478 360.578C540.3 359.275 541.201 358.022 542.174 356.827C542.763 355.982 543.278 355.062 543.805 354.155C544.646 352.449 545.846 350.944 547.322 349.743C548.634 348.823 550.24 348.37 551.527 347.389C552.101 346.921 552.642 346.414 553.145 345.869L553.525 345.502C556.466 342.781 560.634 341.935 564.556 341.199C565.15 341.04 565.776 341.04 566.37 341.199C566.874 341.557 567.272 342.044 567.522 342.609C569.434 346.127 571.408 349.89 571.2 353.898C571.2 354.07 571.2 354.253 571.2 354.437C571.098 355.168 571.044 355.905 571.04 356.644C571.04 358.249 571.751 359.781 571.861 361.387C571.86 363.293 571.442 365.176 570.636 366.903C570.256 367.883 569.876 368.864 569.594 369.857C569.268 371.361 568.858 372.847 568.368 374.306C567.268 376.697 565.301 378.581 562.865 379.577C560.62 380.423 558.26 380.927 555.866 381.072C554.258 381.234 552.634 381.058 551.098 380.557C550.117 380.263 549.149 379.92 548.18 379.552C547.286 379.038 546.403 378.498 545.545 377.922C544.195 377.038 543.037 375.892 542.138 374.551C540.747 372.596 539.657 370.443 538.902 368.165C538.118 365.656 538.324 362.941 539.478 360.578Z" fill="#DBDBDB"/>
<path d="M562.693 349.314C562.693 349.314 537.333 384.701 538.73 446.845" stroke="black" stroke-width="0.49" stroke-miterlimit="10"/>
<path d="M518.505 314.198C519.344 312.335 520.289 310.522 521.336 308.768C521.962 307.542 522.464 306.243 522.979 304.956C523.761 302.556 525.058 300.355 526.779 298.509C528.335 297.038 530.358 296.143 531.853 294.623C532.523 293.899 533.142 293.129 533.704 292.319L534.133 291.755C537.492 287.637 542.811 285.749 547.849 284.045C548.62 283.711 549.467 283.592 550.3 283.702C551.03 284.079 551.644 284.647 552.078 285.344C555.252 289.61 558.537 294.182 558.954 299.489C558.966 299.726 558.966 299.963 558.954 300.2C558.961 301.184 559.031 302.167 559.162 303.142C559.53 305.25 560.682 307.138 561.123 309.271C561.488 311.768 561.303 314.316 560.584 316.735C560.278 318.096 559.947 319.456 559.763 320.817C559.632 322.874 559.374 324.92 558.991 326.946C558.007 330.298 555.773 333.146 552.752 334.9C549.961 336.432 546.958 337.539 543.841 338.185C541.761 338.689 539.6 338.76 537.492 338.394C536.143 338.185 534.795 337.916 533.471 337.609C532.245 337.095 530.934 336.543 529.696 335.955C527.758 335.049 526.023 333.761 524.597 332.167C522.397 329.862 520.558 327.238 519.142 324.384C517.625 321.198 517.397 317.549 518.505 314.198Z" fill="#DBDBDB"/>
<path d="M546.892 295.012C546.892 295.012 521.949 344.984 530.21 427.623" stroke="black" stroke-width="0.49" stroke-miterlimit="10"/>
<path d="M528.115 416.105H527.833L497.95 416.731L501.394 454.973C501.962 461.284 504.725 467.196 509.202 471.68L511.323 473.788C513.81 476.275 517.182 477.673 520.7 477.674H535.298C538.815 477.673 542.188 476.275 544.675 473.788L546.795 471.68C551.273 467.196 554.036 461.284 554.603 454.973L558.011 416.731L528.115 416.105Z" fill="#DBDBDB"/>
<path d="M550.976 495.174C542.114 493.948 533.595 489.278 528.533 481.899C523.47 474.521 522.281 464.384 526.363 456.429C529.513 450.3 535.36 445.9 541.538 442.787C547.715 439.673 554.371 437.651 560.683 434.807C567.651 431.667 574.152 427.58 580.001 422.66" stroke="white" stroke-width="0.63" stroke-miterlimit="10"/>
<path d="M558.993 480.943C553.607 481.206 548.239 480.136 543.365 477.83C536.869 474.52 534.724 465.572 540.607 460.473C543.218 458.23 546.478 457.176 549.469 455.669C552.739 454.025 555.904 452.178 558.944 450.141C564.973 446.087 570.432 441.243 575.173 435.738" stroke="white" stroke-width="0.63" stroke-miterlimit="10"/>
<path d="M534.723 396.775C535.948 406.164 536.978 416.301 532.382 424.575C527.221 433.853 516.447 438.18 506.936 442.814C497.424 447.447 487.324 454.409 485.951 464.95" stroke="white" stroke-width="0.63" stroke-miterlimit="10"/>
<path d="M524.745 406.408C526.154 414.535 524.107 422.588 516.091 426.228C514.878 426.831 513.548 427.164 512.194 427.204C510.84 427.244 509.493 426.991 508.246 426.461C501.591 423.25 501.444 412.145 502.179 406.004" stroke="white" stroke-width="0.63" stroke-miterlimit="10"/>
<path d="M456.716 394.188H90.2244C86.626 394.131 83.178 392.734 80.5551 390.27C77.9322 387.806 76.3232 384.452 76.0428 380.864V14.3727C75.9072 12.6648 76.1272 10.9474 76.689 9.32881C77.2508 7.71027 78.142 6.22579 79.3065 4.96914C80.4711 3.71248 81.8835 2.71095 83.4547 2.02779C85.0258 1.34463 86.7216 0.994688 88.4348 1.00006H454.926C458.532 1.04441 461.99 2.43628 464.621 4.90192C467.253 7.36756 468.866 10.7285 469.144 14.3237V380.815C469.28 382.526 469.059 384.246 468.495 385.867C467.931 387.489 467.037 388.975 465.868 390.232C464.7 391.489 463.283 392.49 461.707 393.171C460.132 393.852 458.432 394.198 456.716 394.188Z" fill="#DDDEE0" stroke="black" stroke-width="0.52" stroke-miterlimit="10"/>
<path d="M76.1787 37.3301H468.594" stroke="black" stroke-width="0.52" stroke-miterlimit="10"/>
<path d="M442.546 14.7656L451.935 24.1547" stroke="black" stroke-width="0.52" stroke-miterlimit="10"/>
<path d="M442.546 24.1547L451.935 14.7656" stroke="black" stroke-width="0.52" stroke-miterlimit="10"/>
<path d="M102.679 19.0055C102.679 17.82 102.327 16.6612 101.669 15.6755C101.01 14.6899 100.074 13.9216 98.9789 13.468C97.8837 13.0143 96.6785 12.8956 95.5159 13.1269C94.3532 13.3582 93.2852 13.929 92.4469 14.7673C91.6087 15.6055 91.0379 16.6735 90.8066 17.8362C90.5753 18.9989 90.694 20.204 91.1477 21.2992C91.6013 22.3944 92.3696 23.3305 93.3552 23.9892C94.3409 24.6478 95.4997 24.9993 96.6852 24.9993C97.4728 25.0009 98.2529 24.847 98.9808 24.5463C99.7088 24.2457 100.37 23.8043 100.927 23.2474C101.484 22.6905 101.925 22.0291 102.226 21.3011C102.527 20.5732 102.681 19.7931 102.679 19.0055Z" fill="#928DC7"/>
<path d="M124.105 19.0055C124.105 17.82 123.753 16.6612 123.095 15.6755C122.436 14.6899 121.5 13.9216 120.405 13.468C119.309 13.0143 118.104 12.8956 116.942 13.1269C115.779 13.3582 114.711 13.929 113.873 14.7673C113.034 15.6055 112.464 16.6735 112.232 17.8362C112.001 18.9989 112.12 20.204 112.573 21.2992C113.027 22.3944 113.795 23.3305 114.781 23.9892C115.767 24.6478 116.926 24.9993 118.111 24.9993C118.899 25.0009 119.679 24.847 120.407 24.5463C121.135 24.2457 121.796 23.8043 122.353 23.2474C122.91 22.6905 123.351 22.0291 123.652 21.3011C123.952 20.5732 124.106 19.7931 124.105 19.0055Z" fill="#FFB940"/>
<path d="M145.616 19.0055C145.616 17.8195 145.264 16.6602 144.605 15.6743C143.945 14.6883 143.009 13.9201 141.913 13.4668C140.817 13.0135 139.611 12.8955 138.448 13.1278C137.285 13.3601 136.217 13.9321 135.379 14.7716C134.541 15.6111 133.971 16.6802 133.742 17.8437C133.512 19.0072 133.632 20.2127 134.088 21.3077C134.543 22.4027 135.313 23.338 136.301 23.9951C137.288 24.6522 138.448 25.0017 139.634 24.9993C140.421 25.0009 141.201 24.8469 141.928 24.5461C142.655 24.2453 143.316 23.8037 143.872 23.2466C144.427 22.6896 144.868 22.0281 145.167 21.3002C145.466 20.5723 145.619 19.7925 145.616 19.0055Z" fill="#00C1A3"/>
<path d="M447.168 148.908C447.168 146.633 446.264 144.45 444.655 142.841C443.046 141.232 440.863 140.328 438.588 140.328H200.405C198.13 140.328 195.947 141.232 194.338 142.841C192.729 144.45 191.825 146.633 191.825 148.908V191.808C191.825 194.084 192.729 196.266 194.338 197.876C195.947 199.485 198.13 200.389 200.405 200.389H421.501L431.454 208.429C431.736 208.66 432.081 208.801 432.443 208.835C432.806 208.869 433.171 208.795 433.491 208.622C433.812 208.449 434.073 208.184 434.243 207.862C434.413 207.539 434.483 207.174 434.445 206.811L433.955 201.908C433.927 201.614 433.982 201.318 434.115 201.054C434.247 200.79 434.45 200.568 434.702 200.413C439.691 200.413 446.494 200.229 446.959 193.684C447.097 193.077 447.167 192.456 447.168 191.833V148.908Z" fill="#00C1A3" stroke="black" stroke-width="0.52" stroke-miterlimit="10"/>
<path d="M224.958 152.182L230.805 164.01L243.859 165.91L234.409 175.115L236.639 188.132L224.958 181.991L213.277 188.132L215.508 175.115L206.058 165.91L219.124 164.01L224.958 152.182Z" fill="#FFB940"/>
<path d="M233.04 151.458L227.377 149.42L213.172 188.898L218.834 190.936L233.04 151.458Z" fill="#FFC86B"/>
<path d="M239.515 152.957L236.39 151.832L222.184 191.311L225.31 192.435L239.515 152.957Z" fill="#FFC86B"/>
<path d="M272.035 152.182L277.882 164.01L290.936 165.91L281.486 175.115L283.717 188.132L272.035 181.991L260.354 188.132L262.585 175.115L253.135 165.91L266.201 164.01L272.035 152.182Z" fill="#FFB940"/>
<path d="M272.035 152.182L277.882 164.01L290.936 165.91L281.486 175.115L283.717 188.132L272.035 181.991L260.354 188.132L262.585 175.115L253.135 165.91L266.201 164.01L272.035 152.182Z" fill="#FFB940"/>
<path d="M280.112 151.467L274.449 149.43L260.244 188.908L265.907 190.946L280.112 151.467Z" fill="#FFC86B"/>
<path d="M286.587 152.966L283.462 151.842L269.257 191.32L272.382 192.445L286.587 152.966Z" fill="#FFC86B"/>
<path d="M319.116 152.182L324.963 164.01L338.017 165.91L328.567 175.115L330.798 188.132L319.116 181.991L307.435 188.132L309.666 175.115L300.216 165.91L313.27 164.01L319.116 152.182Z" fill="#FFB940"/>
<path d="M319.116 152.182L324.963 164.01L338.017 165.91L328.567 175.115L330.798 188.132L319.116 181.991L307.435 188.132L309.666 175.115L300.216 165.91L313.27 164.01L319.116 152.182Z" fill="#FFB940"/>
<path d="M327.192 151.475L321.529 149.438L307.324 188.916L312.987 190.954L327.192 151.475Z" fill="#FFC86B"/>
<path d="M333.668 152.964L330.542 151.84L316.337 191.318L319.462 192.443L333.668 152.964Z" fill="#FFC86B"/>
<path d="M366.198 152.182L372.032 164.01L385.098 165.91L375.648 175.115L377.879 188.132L366.198 181.991L354.516 188.132L356.747 175.115L347.297 165.91L360.351 164.01L366.198 152.182Z" fill="#FFB940"/>
<path d="M366.198 152.182L372.032 164.01L385.098 165.91L375.648 175.115L377.879 188.132L366.198 181.991L354.516 188.132L356.747 175.115L347.297 165.91L360.351 164.01L366.198 152.182Z" fill="#FFB940"/>
<path d="M374.265 151.475L368.603 149.438L354.397 188.916L360.06 190.954L374.265 151.475Z" fill="#FFC86B"/>
<path d="M380.752 152.964L377.627 151.84L363.422 191.318L366.547 192.443L380.752 152.964Z" fill="#FFC86B"/>
<path d="M413.572 152.182L419.418 164.01L432.472 165.91L423.022 175.115L425.253 188.132L413.572 181.991L401.89 188.132L404.121 175.115L394.671 165.91L407.725 164.01L413.572 152.182Z" fill="white"/>
<path d="M109.028 56.5508H235.081C237.088 56.5572 239.011 57.3574 240.431 58.7766C241.85 60.1958 242.65 62.1187 242.656 64.1258V112.873C242.65 114.88 241.85 116.803 240.431 118.222C239.011 119.641 237.088 120.441 235.081 120.448H230.179C229.94 120.45 229.704 120.502 229.486 120.6C229.268 120.698 229.073 120.841 228.913 121.018C228.753 121.195 228.631 121.404 228.556 121.631C228.48 121.857 228.453 122.097 228.475 122.335L228.99 127.704C229.031 128.096 228.954 128.491 228.77 128.839C228.586 129.187 228.302 129.473 227.955 129.659C227.608 129.846 227.214 129.925 226.822 129.887C226.43 129.849 226.058 129.695 225.754 129.445L214.6 120.448H109.028C107.021 120.441 105.098 119.641 103.679 118.222C102.26 116.803 101.46 114.88 101.453 112.873V64.1258C101.46 62.1187 102.26 60.1958 103.679 58.7766C105.098 57.3574 107.021 56.5572 109.028 56.5508Z" fill="#00C1A3" stroke="black" stroke-width="0.52" stroke-miterlimit="10"/>
<path d="M138.703 86.4336C136.533 88.209 133.815 89.1789 131.011 89.1789C128.207 89.1789 125.49 88.209 123.32 86.4336C119.812 87.9359 116.823 90.4348 114.722 93.6203C112.622 96.8059 111.503 100.538 111.504 104.354H150.506C150.507 100.54 149.389 96.8093 147.291 93.6242C145.193 90.4391 142.207 87.9391 138.703 86.4336Z" fill="white"/>
<path d="M127.047 85.2549C128.832 86.1138 130.848 86.3689 132.791 85.9817C134.733 85.5945 136.497 84.586 137.817 83.1084C139.136 81.6308 139.94 79.7641 140.105 77.7901C140.271 75.816 139.79 73.8416 138.736 72.1647C137.681 70.4878 136.11 69.1993 134.259 68.4936C132.408 67.7879 130.377 67.7033 128.474 68.2525C126.571 68.8017 124.897 69.955 123.707 71.5384C122.516 73.1218 121.873 75.0493 121.874 77.0303C121.873 78.7494 122.359 80.4336 123.274 81.8888C124.189 83.344 125.497 84.5109 127.047 85.2549Z" fill="white"/>
<path d="M232.606 69.9219H157.236V71.0618H232.606V69.9219Z" fill="white"/>
<path d="M232.606 76.1738H157.236V77.3137H232.606V76.1738Z" fill="white"/>
<path d="M232.606 82.4355H157.236V83.5755H232.606V82.4355Z" fill="white"/>
<path d="M232.606 88.6895H157.236V89.8294H232.606V88.6895Z" fill="white"/>
<path d="M232.606 94.9395H157.236V96.0794H232.606V94.9395Z" fill="white"/>
<path d="M193.763 101.189H157.236V102.329H193.763V101.189Z" fill="white"/>
<path d="M368.674 316.219H440.342C441.967 316.219 443.526 316.864 444.675 318.014C445.824 319.163 446.47 320.722 446.47 322.347V361.681C446.47 363.306 445.824 364.865 444.675 366.014C443.526 367.164 441.967 367.809 440.342 367.809H436.419C436.225 367.81 436.033 367.852 435.855 367.931C435.678 368.01 435.519 368.126 435.388 368.27C435.258 368.414 435.159 368.584 435.098 368.768C435.037 368.953 435.015 369.148 435.034 369.342L435.451 373.668C435.483 373.984 435.421 374.303 435.273 374.583C435.124 374.864 434.896 375.095 434.616 375.245C434.337 375.396 434.019 375.461 433.703 375.431C433.387 375.401 433.086 375.278 432.84 375.078L423.831 367.809H368.674C367.048 367.809 365.489 367.164 364.34 366.014C363.191 364.865 362.545 363.306 362.545 361.681V322.347C362.545 320.722 363.191 319.163 364.34 318.014C365.489 316.864 367.048 316.219 368.674 316.219Z" fill="#928DC7" stroke="black" stroke-width="0.52" stroke-miterlimit="10"/>
<path d="M419.174 344.754C420.487 344.754 421.552 343.689 421.552 342.376C421.552 341.063 420.487 339.998 419.174 339.998C417.861 339.998 416.796 341.063 416.796 342.376C416.796 343.689 417.861 344.754 419.174 344.754Z" fill="#F2F2F2"/>
<path d="M404.502 344.754C405.815 344.754 406.88 343.689 406.88 342.376C406.88 341.063 405.815 339.998 404.502 339.998C403.189 339.998 402.124 341.063 402.124 342.376C402.124 343.689 403.189 344.754 404.502 344.754Z" fill="#F2F2F2"/>
<path d="M389.829 344.754C391.142 344.754 392.207 343.689 392.207 342.376C392.207 341.063 391.142 339.998 389.829 339.998C388.516 339.998 387.451 341.063 387.451 342.376C387.451 343.689 388.516 344.754 389.829 344.754Z" fill="#F2F2F2"/>
<path d="M439.201 228.127H369.764C367.893 228.13 366.099 228.875 364.776 230.198C363.452 231.522 362.707 233.316 362.704 235.187V280.539C362.711 282.408 363.457 284.199 364.78 285.52C366.103 286.84 367.895 287.584 369.764 287.587H374.287C374.511 287.587 374.732 287.635 374.937 287.726C375.141 287.817 375.325 287.95 375.475 288.117C375.625 288.283 375.738 288.478 375.808 288.691C375.878 288.904 375.903 289.129 375.881 289.352L375.403 294.341C375.366 294.705 375.438 295.073 375.61 295.396C375.782 295.72 376.046 295.985 376.369 296.158C376.692 296.332 377.059 296.405 377.424 296.37C377.789 296.334 378.135 296.191 378.418 295.958L388.8 287.587H439.201C441.069 287.58 442.858 286.836 444.178 285.515C445.498 284.195 446.243 282.406 446.249 280.539V235.187C446.246 233.318 445.503 231.526 444.182 230.203C442.862 228.88 441.071 228.133 439.201 228.127Z" fill="#FFB940" stroke="black" stroke-width="0.52" stroke-miterlimit="10"/>
<path d="M394.058 251.109H387.451C386.74 251.109 386.164 251.686 386.164 252.396V269.851C386.164 270.561 386.74 271.138 387.451 271.138H394.058C394.769 271.138 395.345 270.561 395.345 269.851V252.396C395.345 251.686 394.769 251.109 394.058 251.109Z" fill="#0061A8"/>
<path d="M422.801 253.976C422.802 253.557 422.721 253.141 422.561 252.754C422.402 252.367 422.167 252.015 421.871 251.718C421.575 251.422 421.223 251.187 420.835 251.028C420.448 250.868 420.033 250.787 419.614 250.789H409.551L411.071 243.508C411.11 243.343 411.13 243.175 411.132 243.005C411.126 242.372 410.876 241.766 410.433 241.314C409.977 240.879 409.372 240.637 408.742 240.637C408.112 240.637 407.506 240.879 407.05 241.314L398.237 250.127C397.643 250.727 397.309 251.537 397.306 252.382V268.316C397.309 269.161 397.646 269.969 398.243 270.566C398.84 271.163 399.648 271.5 400.493 271.503H414.833C415.46 271.504 416.072 271.319 416.593 270.972C417.114 270.625 417.521 270.132 417.763 269.554C417.763 269.554 422.801 257.567 422.801 257.162V253.976Z" fill="#F2F2F2"/>
<path d="M391.679 20.0742H294.185C291.56 20.0807 289.045 21.1262 287.189 22.9821C285.333 24.8381 284.288 27.3534 284.281 29.9781V93.7157C284.291 96.3393 285.338 98.8528 287.193 100.708C289.048 102.563 291.561 103.61 294.185 103.62H300.534C300.847 103.618 301.157 103.682 301.444 103.808C301.73 103.933 301.988 104.117 302.199 104.348C302.41 104.579 302.571 104.852 302.67 105.148C302.77 105.445 302.806 105.759 302.777 106.071L302.091 113.082C302.042 113.594 302.145 114.109 302.387 114.563C302.63 115.016 303.001 115.388 303.454 115.632C303.907 115.875 304.421 115.98 304.934 115.932C305.446 115.884 305.932 115.685 306.332 115.362L320.918 103.607H391.679C394.305 103.601 396.822 102.556 398.679 100.7C400.537 98.8445 401.586 96.3292 401.595 93.7034V29.9658C401.586 27.3411 400.537 24.8271 398.679 22.9735C396.82 21.1198 394.304 20.0774 391.679 20.0742Z" fill="#FFB940" stroke="black" stroke-width="0.52" stroke-miterlimit="10"/>
<path d="M307.913 46.6577C310.905 46.6577 313.331 44.2321 313.331 41.24C313.331 38.2479 310.905 35.8223 307.913 35.8223C304.921 35.8223 302.495 38.2479 302.495 41.24C302.495 44.2321 304.921 46.6577 307.913 46.6577Z" fill="white"/>
<path d="M306.737 44.0251L304.163 41.4388C304.115 41.4048 304.075 41.3607 304.046 41.3096C304.016 41.2584 303.999 41.2016 303.994 41.1429C303.989 41.0842 303.997 41.0251 304.017 40.9698C304.037 40.9145 304.069 40.8643 304.111 40.8226C304.152 40.781 304.203 40.7489 304.258 40.7287C304.313 40.7085 304.372 40.7006 304.431 40.7056C304.49 40.7106 304.546 40.7283 304.598 40.7576C304.649 40.7868 304.693 40.8269 304.727 40.875L306.737 42.8852L311.039 38.5951C311.077 38.557 311.122 38.5266 311.171 38.5059C311.221 38.4853 311.274 38.4746 311.327 38.4746C311.381 38.4746 311.434 38.4853 311.484 38.5059C311.533 38.5266 311.578 38.557 311.615 38.5951C311.653 38.6317 311.683 38.6755 311.704 38.7239C311.724 38.7724 311.735 38.8244 311.735 38.877C311.735 38.9296 311.724 38.9817 311.704 39.0301C311.683 39.0786 311.653 39.1224 311.615 39.159L306.737 44.0251Z" fill="#FFB940"/>
<path d="M318.65 41.2422H383.381" stroke="white" stroke-width="1.33" stroke-miterlimit="10" stroke-linecap="round"/>
<path d="M307.913 65.3002C310.905 65.3002 313.331 62.8747 313.331 59.8825C313.331 56.8904 310.905 54.4648 307.913 54.4648C304.921 54.4648 302.495 56.8904 302.495 59.8825C302.495 62.8747 304.921 65.3002 307.913 65.3002Z" fill="white"/>
<path d="M306.737 62.667L304.163 60.093C304.124 60.0553 304.094 60.0105 304.073 59.9611C304.053 59.9116 304.042 59.8585 304.042 59.8049C304.042 59.7513 304.053 59.6983 304.073 59.6488C304.094 59.5994 304.124 59.5545 304.163 59.5169C304.199 59.4791 304.243 59.449 304.291 59.4285C304.34 59.4079 304.392 59.3974 304.444 59.3974C304.497 59.3974 304.549 59.4079 304.598 59.4285C304.646 59.449 304.69 59.4791 304.726 59.5169L306.737 61.5271L311.039 57.2248C311.115 57.1484 311.219 57.1055 311.327 57.1055C311.435 57.1055 311.539 57.1484 311.615 57.2248C311.691 57.3012 311.734 57.4048 311.734 57.5128C311.734 57.6209 311.691 57.7245 311.615 57.8009L306.737 62.667Z" fill="#FFB940"/>
<path d="M318.65 59.8867H383.381" stroke="white" stroke-width="1.33" stroke-miterlimit="10" stroke-linecap="round"/>
<path d="M307.913 83.9584C310.905 83.9584 313.331 81.5329 313.331 78.5407C313.331 75.5486 310.905 73.123 307.913 73.123C304.921 73.123 302.495 75.5486 302.495 78.5407C302.495 81.5329 304.921 83.9584 307.913 83.9584Z" fill="white"/>
<path d="M306.737 81.3244L304.163 78.7382C304.115 78.7041 304.075 78.66 304.046 78.6089C304.016 78.5578 303.999 78.5009 303.994 78.4422C303.989 78.3836 303.997 78.3245 304.017 78.2692C304.037 78.2139 304.069 78.1636 304.111 78.122C304.152 78.0803 304.203 78.0483 304.258 78.0281C304.313 78.0079 304.372 78 304.431 78.005C304.49 78.0099 304.546 78.0277 304.598 78.0569C304.649 78.0862 304.693 78.1263 304.727 78.1743L306.737 80.1723L311.039 75.8822C311.077 75.8441 311.122 75.8138 311.171 75.7931C311.221 75.7724 311.274 75.7617 311.327 75.7617C311.381 75.7617 311.434 75.7724 311.484 75.7931C311.533 75.8138 311.578 75.8441 311.615 75.8822C311.653 75.9188 311.683 75.9626 311.704 76.011C311.724 76.0595 311.735 76.1115 311.735 76.1642C311.735 76.2168 311.724 76.2688 311.704 76.3173C311.683 76.3657 311.653 76.4095 311.615 76.4461L306.737 81.3244Z" fill="#FFB940"/>
<path d="M318.65 78.5371H383.381" stroke="white" stroke-width="1.33" stroke-miterlimit="10" stroke-linecap="round"/>
<path d="M26.4756 140.572H101.527C103.547 140.579 105.482 141.384 106.91 142.812C108.339 144.241 109.144 146.176 109.151 148.196V197.225C109.144 199.245 108.339 201.181 106.91 202.609C105.482 204.037 103.547 204.843 101.527 204.849H96.6237C96.3815 204.848 96.1418 204.898 95.9201 204.995C95.6984 205.092 95.4997 205.235 95.3367 205.414C95.1738 205.594 95.0503 205.805 94.9743 206.035C94.8982 206.265 94.8714 206.508 94.8954 206.749L95.4225 212.142C95.4489 212.524 95.3659 212.905 95.1832 213.241C95.0004 213.577 94.7256 213.854 94.391 214.039C94.0564 214.225 93.6759 214.311 93.2941 214.287C92.9123 214.264 92.5451 214.132 92.2356 213.907L81.008 204.849H26.4756C24.4555 204.843 22.5201 204.037 21.0917 202.609C19.6633 201.181 18.858 199.245 18.8516 197.225V148.196C18.858 146.176 19.6633 144.241 21.0917 142.812C22.5201 141.384 24.4555 140.579 26.4756 140.572Z" fill="#928DC7" stroke="black" stroke-width="0.52" stroke-miterlimit="10"/>
<path d="M60.7471 180.076C60.6613 178.212 60.8935 176.347 61.4335 174.56C62.3129 172.998 63.4867 171.62 64.89 170.503C66.2633 168.936 67.556 167.299 68.7633 165.6C69.5563 164.358 69.9577 162.906 69.9155 161.433C69.9819 160.607 69.878 159.776 69.6102 158.992C69.3424 158.207 68.9165 157.486 68.3588 156.873C67.7658 156.327 67.0676 155.907 66.3068 155.639C65.546 155.371 64.7386 155.262 63.934 155.317C62.4051 155.276 60.907 155.751 59.6807 156.665C59.0823 157.147 58.6094 157.767 58.302 158.471C57.9947 159.175 57.8622 159.943 57.9157 160.71H52.7676L52.6941 160.55C52.6159 159.208 52.8573 157.865 53.3985 156.634C53.9397 155.402 54.7652 154.316 55.8074 153.466C58.1092 151.632 60.9937 150.688 63.934 150.806C66.9824 150.617 69.9872 151.604 72.3302 153.564C73.3493 154.559 74.1434 155.761 74.6593 157.089C75.1752 158.416 75.4008 159.839 75.3209 161.261C75.3342 163.563 74.6599 165.817 73.3843 167.733C71.9038 169.915 70.1899 171.929 68.273 173.739C67.4637 174.46 66.8519 175.376 66.4957 176.399C66.244 177.608 66.1371 178.842 66.177 180.076H60.7471ZM63.5172 191.316C63.147 191.316 62.7804 191.243 62.4384 191.102C62.0963 190.96 61.7855 190.752 61.5238 190.49C61.262 190.229 61.0543 189.918 60.9126 189.576C60.771 189.234 60.698 188.867 60.698 188.497V188.436C60.698 188.065 60.771 187.699 60.9126 187.357C61.0543 187.015 61.262 186.704 61.5238 186.442C61.7855 186.18 62.0963 185.973 62.4384 185.831C62.7804 185.689 63.147 185.617 63.5172 185.617C63.8885 185.615 64.2564 185.687 64.5998 185.828C64.9433 185.969 65.2555 186.176 65.5186 186.438C65.7817 186.7 65.9904 187.011 66.1329 187.354C66.2753 187.697 66.3486 188.064 66.3486 188.436V188.497C66.3486 188.868 66.2753 189.236 66.1329 189.579C65.9904 189.922 65.7817 190.233 65.5186 190.495C65.2555 190.757 64.9433 190.964 64.5998 191.105C64.2564 191.246 63.8885 191.318 63.5172 191.316Z" fill="#F2F2F2"/>
<path d="M240.892 505.199C336.199 505.199 413.461 498.57 413.461 490.393C413.461 482.215 336.199 475.586 240.892 475.586C145.584 475.586 68.3223 482.215 68.3223 490.393C68.3223 498.57 145.584 505.199 240.892 505.199Z" fill="#DBDBDB"/>
<path d="M129.891 219.889C102.667 221.973 77.7117 240.028 62.3166 262.067C35.8778 299.917 39.0279 353.309 53.2708 395.29C73.8507 455.951 128.395 488.065 193.261 489.23C229.358 489.892 263.544 490.541 293.512 472.07C316.568 457.827 338.705 422.085 337.001 392.042C335.555 366.474 322.672 336.492 295.045 330.928C291.367 330.18 287.519 330.217 283.768 329.702C276.732 328.783 270.886 331.393 264.487 334.151C257.133 337.314 249.975 340.832 242.596 343.884C229.174 349.448 214.404 353.444 200.174 350.221C192.096 348.394 184.239 343.896 180.219 336.664C175.193 327.655 176.922 316.587 177.682 306.303C178.942 288.8 176.96 271.214 171.835 254.43C169.776 247.664 167.104 241.119 164.983 234.365C163.537 229.793 161.392 226.582 157.016 224.363C148.791 220.171 138.973 219.191 129.891 219.889Z" fill="#928DC7"/>
<path d="M116.04 275.292C108.379 297.613 107.141 324.726 115.219 347.095C122.769 368.03 139.12 386.122 160.092 393.55C181.064 400.978 236.896 394.052 225.693 359.561C224.247 355.099 221.268 351.312 218.4 347.585C195.684 318.117 176.071 286.382 159.872 252.886C157.947 248.915 155.962 244.772 152.517 241.989C151.148 240.827 149.514 240.019 147.76 239.636C146.005 239.254 144.183 239.308 142.454 239.795C139.427 240.764 136.779 243.325 134.487 245.421C128.971 250.623 124.407 256.75 121.004 263.525C119.058 267.318 117.399 271.251 116.04 275.292Z" stroke="black" stroke-width="0.52" stroke-miterlimit="10"/>
<path d="M212.038 389.613C212.038 389.613 247.29 409.164 240.977 490.024" stroke="black" stroke-width="0.52" stroke-miterlimit="10"/>
<path d="M112.092 335.168C112.092 335.168 52.608 335.609 41.1475 377.48" stroke="black" stroke-width="0.52" stroke-miterlimit="10"/>
<path d="M151.744 390.289C151.744 390.289 120.66 412.536 105.081 478.186" stroke="black" stroke-width="0.52" stroke-miterlimit="10"/>
<path d="M123.197 259.152C123.197 259.152 102.041 237.885 64.4727 253.955" stroke="black" stroke-width="0.52" stroke-miterlimit="10"/>
<path d="M273.312 446.685V481.827C273.312 481.827 319.155 492.11 338.533 481.704C338.533 481.704 335.824 472.205 303.073 459.2L304.936 440.25L273.312 446.685Z" fill="#D68060"/>
<path d="M297.127 340.244C307.254 340.244 315.464 332.034 315.464 321.907C315.464 311.78 307.254 303.57 297.127 303.57C287 303.57 278.79 311.78 278.79 321.907C278.79 332.034 287 340.244 297.127 340.244Z" fill="#78374B"/>
<path d="M315.465 321.908L317.058 446.711L272.822 449.101L270.432 321.908" fill="#78374B"/>
<path d="M293.143 303.973L263.652 312.344L267.244 329.884L295.141 335.069L293.143 303.973Z" fill="#78374B"/>
<path d="M126.029 156.333C124.7 155.508 123.512 154.473 122.511 153.269C121.935 152.57 121.577 151.718 121.482 150.818C121.437 150.374 121.509 149.926 121.692 149.52C121.875 149.113 122.162 148.762 122.524 148.501C123.847 147.655 125.563 148.562 126.863 149.457L134.536 154.74C136.154 155.855 137.759 156.958 139.365 158.111C140.444 158.883 141.964 160.06 141.559 161.604C141.502 161.905 141.38 162.191 141.203 162.441C141.026 162.691 140.798 162.901 140.533 163.055C140.268 163.21 139.973 163.306 139.668 163.336C139.363 163.367 139.055 163.332 138.765 163.234C137.289 162.78 135.874 162.15 134.548 161.359C133.163 160.648 131.802 159.9 130.454 159.116C129.106 158.331 127.476 157.314 126.029 156.333Z" fill="#013741"/>
<path d="M123.479 163.15C121.984 162.695 120.569 162.008 119.287 161.115C118.555 160.596 117.989 159.877 117.657 159.043C117.507 158.635 117.466 158.194 117.537 157.765C117.607 157.335 117.788 156.931 118.061 156.592C119.115 155.428 121.003 155.857 122.498 156.371L131.287 159.46C133.138 160.11 134.964 160.759 136.827 161.446C138.053 161.912 139.842 162.672 139.867 164.241C139.89 164.546 139.848 164.853 139.743 165.14C139.637 165.428 139.472 165.69 139.257 165.908C139.042 166.127 138.783 166.296 138.497 166.406C138.211 166.516 137.905 166.563 137.599 166.545C136.057 166.495 134.526 166.261 133.04 165.846C131.52 165.528 130 165.16 128.504 164.743C126.813 164.228 125.134 163.713 123.479 163.15Z" fill="#013741"/>
<path d="M124.02 171.117C122.458 171.257 120.884 171.137 119.362 170.761C118.495 170.545 117.708 170.086 117.094 169.438C116.798 169.112 116.593 168.714 116.498 168.284C116.404 167.854 116.423 167.406 116.555 166.986C117.107 165.515 119.006 165.221 120.6 165.16L129.903 164.817C131.864 164.743 133.825 164.67 135.787 164.633C137.135 164.633 139.047 164.633 139.648 166.116C139.783 166.389 139.858 166.688 139.868 166.993C139.879 167.297 139.824 167.6 139.708 167.882C139.592 168.164 139.417 168.418 139.196 168.627C138.974 168.836 138.71 168.995 138.422 169.094C136.968 169.611 135.458 169.952 133.923 170.112C132.391 170.369 130.847 170.59 129.29 170.749C127.513 170.921 125.772 171.056 124.02 171.117Z" fill="#013741"/>
<path d="M135.884 171.671C135.628 170.191 135.816 168.668 136.423 167.295C137.218 165.066 138.47 163.028 140.1 161.313C140.836 160.507 141.752 159.886 142.772 159.499C143.285 159.316 143.833 159.251 144.375 159.311C144.916 159.37 145.437 159.552 145.898 159.842C146.053 159.94 146.177 160.08 146.253 160.247C146.449 160.676 146.094 161.129 145.788 161.473C144.084 163.379 142.712 165.559 141.73 167.92C141.231 169.113 140.822 170.343 140.505 171.597C140.272 172.541 139.941 174.281 138.666 174.269C137.993 174.17 137.366 173.868 136.869 173.404C136.372 172.94 136.028 172.335 135.884 171.671Z" fill="#FF5A13"/>
<path d="M142.281 193.437C139.74 188.037 138.658 182.066 139.143 176.118C139.413 171.57 140.369 166.913 143.139 163.248C144.999 160.849 147.391 158.914 150.126 157.597C155.889 154.725 162.519 154.117 168.708 155.893C178.354 158.725 187.67 168.69 185.12 179.366C178.414 174.984 170.421 173.001 162.444 173.74C160.637 173.781 158.882 174.361 157.407 175.407C156.218 176.481 155.414 177.915 155.115 179.488C154.561 182.377 154.615 185.349 155.274 188.216C155.813 191.17 156.61 194.087 156.904 197.09C157.082 198.535 157.082 199.996 156.904 201.441C156.745 202.532 156.487 203.893 155.298 204.26C154.149 204.483 152.958 204.25 151.977 203.611C150.693 202.928 149.488 202.106 148.385 201.159C146.143 199.259 144.266 196.966 142.845 194.393C142.612 194.087 142.49 193.768 142.281 193.437Z" fill="#013741"/>
<path d="M154.099 197.387C154.099 197.387 151.807 213.162 150.078 227.515C149.662 230.935 151.402 237.946 154.748 238.767L163.856 242.077C177.755 240.446 177.939 234.44 177.657 230.53L175.941 213.958L154.099 197.387Z" fill="#D68060"/>
<path d="M176.308 217.461C172.201 219.459 167.433 217.62 163.793 214.862C160.422 212.3 155.066 204.811 153.521 200.926C153.521 200.926 160.471 227.892 177.104 225.195L176.308 217.461Z" fill="#013741"/>
<path d="M187.094 172.209C190.093 180.036 191.347 188.423 190.771 196.785C190.256 204.2 187.927 214.913 181.186 219.301C177.018 222.022 171.306 221.508 167.004 219.019C163.682 216.936 160.892 214.107 158.853 210.758C158.203 209.753 152.957 201.565 153.815 200.695C153.174 201.319 152.34 201.707 151.449 201.796C150.559 201.885 149.665 201.669 148.912 201.185C148.185 200.664 147.586 199.983 147.161 199.195C146.736 198.407 146.497 197.532 146.461 196.638C146.37 195.932 146.439 195.215 146.664 194.54C146.889 193.865 147.264 193.25 147.76 192.74C149.268 191.392 151.572 191.661 153.57 192.029C151.119 186.268 149.562 173.729 153.288 168.679C155.186 166.163 157.696 164.175 160.58 162.905C163.464 161.635 166.625 161.124 169.762 161.423C172.445 161.851 175.088 162.494 177.668 163.347C180.119 164.009 182.571 164.426 184.103 166.583C185.322 168.331 186.326 170.22 187.094 172.209Z" fill="#D68060"/>
<path d="M152.408 199.667C152.408 199.667 152.261 192.986 148.24 194.016" stroke="black" stroke-width="0.52" stroke-miterlimit="10"/>
<path d="M169.052 207.412C169.052 207.412 171.957 211.727 176.811 210.648" stroke="black" stroke-width="0.52" stroke-miterlimit="10"/>
<path d="M180.486 192.959C180.208 196.459 181.317 199.928 183.575 202.618C183.99 202.984 184.246 203.499 184.286 204.052C184.252 204.289 184.164 204.516 184.029 204.714C183.638 205.315 183.086 205.793 182.435 206.095C181.785 206.396 181.063 206.508 180.352 206.417" stroke="black" stroke-width="0.52" stroke-miterlimit="10"/>
<path d="M184.668 192.42C184.626 192.647 184.637 192.881 184.7 193.104C184.763 193.326 184.875 193.531 185.029 193.704C185.183 193.876 185.375 194.011 185.589 194.098C185.802 194.186 186.034 194.223 186.264 194.208C186.495 194.193 186.719 194.125 186.919 194.01C187.12 193.895 187.291 193.736 187.421 193.544C187.551 193.353 187.635 193.135 187.668 192.906C187.7 192.677 187.68 192.444 187.609 192.224C187.536 191.182 186.825 190.385 186.016 190.447C185.577 190.533 185.19 190.788 184.938 191.157C184.685 191.526 184.588 191.98 184.668 192.42Z" fill="#013741"/>
<path d="M173.134 192.935C173.22 193.207 173.381 193.45 173.599 193.635C173.816 193.82 174.081 193.94 174.364 193.981C174.647 194.022 174.935 193.983 175.197 193.867C175.458 193.752 175.682 193.566 175.842 193.329C176.002 193.092 176.092 192.816 176.102 192.53C176.112 192.245 176.041 191.962 175.898 191.715C175.755 191.468 175.545 191.266 175.292 191.133C175.04 190.999 174.755 190.94 174.47 190.961C174.032 191.047 173.646 191.303 173.395 191.673C173.145 192.042 173.051 192.496 173.134 192.935Z" fill="#013741"/>
<path d="M183.994 187.519C183.862 187.526 183.731 187.5 183.611 187.445C183.492 187.389 183.388 187.305 183.308 187.2C183.277 187.13 183.262 187.055 183.262 186.979C183.262 186.903 183.277 186.828 183.308 186.759C183.428 186.533 183.603 186.341 183.818 186.202C184.032 186.063 184.278 185.98 184.533 185.962C186.375 185.635 188.273 185.919 189.939 186.771C190.392 187.004 191.103 187.433 191.054 187.997C191.005 188.561 190.405 188.536 190.037 188.426C188.782 188.051 187.493 187.805 186.188 187.69C185.477 187.629 184.73 187.519 183.994 187.519Z" fill="#013741"/>
<path d="M176.81 187.774C176.943 187.776 177.074 187.747 177.193 187.69C177.312 187.632 177.416 187.548 177.497 187.443C177.527 187.373 177.543 187.298 177.543 187.222C177.543 187.146 177.527 187.071 177.497 187.001C177.313 186.499 176.725 186.303 176.271 186.205C174.423 185.897 172.524 186.202 170.866 187.075C170.424 187.308 169.701 187.761 169.762 188.362C169.824 188.962 170.412 188.901 170.792 188.779C172.041 188.392 173.327 188.137 174.629 188.019C175.364 187.933 176.112 187.872 176.81 187.774Z" fill="#013741"/>
<path d="M158.131 195.561C158.37 195.315 158.517 194.995 158.548 194.654C158.989 192.203 158.327 189.678 157.923 187.214C157.518 184.75 157.433 182.005 158.854 179.945C160.509 177.494 163.757 176.722 166.711 176.93C169.665 177.139 172.472 178.156 175.402 178.413C178.684 178.666 181.979 178.146 185.024 176.893C193.444 173.032 179.728 160.567 174.531 158.409C171.957 157.343 173.097 159.427 170.327 159.635C168.933 159.722 167.55 159.939 166.196 160.285C165.575 160.511 164.935 160.683 164.284 160.8C163.709 160.859 163.152 161.03 162.642 161.302C162.041 161.596 161.416 161.927 160.877 162.27C158.213 163.827 155.694 165.62 153.351 167.627C149.87 170.618 146.573 174.663 146.977 179.235C147.247 182.225 148.975 184.995 150.176 187.692C151.116 189.608 152.409 191.33 153.988 192.766C154.699 193.49 155.41 194.213 156.146 194.924C156.599 195.34 157.457 196.1 158.131 195.561Z" fill="#013741"/>
<path d="M179.127 193.648C179.13 192.58 178.815 191.537 178.224 190.648C177.633 189.759 176.792 189.066 175.806 188.656C174.821 188.246 173.736 188.138 172.689 188.344C171.642 188.551 170.68 189.064 169.925 189.817C169.169 190.571 168.654 191.532 168.445 192.579C168.236 193.625 168.342 194.71 168.75 195.696C169.158 196.683 169.849 197.526 170.736 198.119C171.624 198.712 172.667 199.029 173.734 199.029C174.442 199.03 175.143 198.892 175.797 198.622C176.451 198.353 177.046 197.957 177.547 197.457C178.048 196.957 178.445 196.363 178.716 195.71C178.988 195.056 179.127 194.355 179.127 193.648V193.648Z" stroke="white" stroke-width="0.7" stroke-miterlimit="10"/>
<path d="M193.492 193.645C193.492 192.58 193.177 191.54 192.585 190.655C191.994 189.77 191.154 189.081 190.171 188.673C189.187 188.266 188.105 188.159 187.062 188.367C186.018 188.575 185.059 189.087 184.307 189.84C183.554 190.592 183.041 191.551 182.834 192.595C182.626 193.639 182.733 194.721 183.14 195.704C183.547 196.687 184.237 197.527 185.122 198.119C186.007 198.71 187.047 199.026 188.111 199.026C188.818 199.027 189.519 198.889 190.172 198.619C190.826 198.349 191.42 197.953 191.92 197.453C192.42 196.953 192.816 196.359 193.086 195.706C193.356 195.052 193.494 194.352 193.492 193.645Z" stroke="white" stroke-width="0.7" stroke-miterlimit="10"/>
<path d="M178.992 192.642C179.031 192.153 179.253 191.697 179.613 191.365C179.973 191.032 180.445 190.848 180.935 190.848C181.425 190.848 181.897 191.032 182.257 191.365C182.617 191.697 182.839 192.153 182.878 192.642" stroke="white" stroke-width="0.74" stroke-miterlimit="10"/>
<path d="M168.99 191.061L151.695 191.551" stroke="white" stroke-width="0.74" stroke-miterlimit="10"/>
<path d="M214.955 261.587C219.464 273.239 223.203 285.174 226.146 297.317L260.724 286.8L265.627 312.013C249.052 321.151 231.896 329.193 214.269 336.086C211.989 336.981 209.366 337.851 207.16 336.809C204.549 335.584 203.716 332.311 203.188 329.455L190.613 261.415C189.535 254.918 188.099 248.485 186.31 242.147C185.477 239.389 184.153 236.692 183.614 233.861C183.258 232.071 183.087 229.743 184.214 228.186C185.587 226.286 188.124 227.083 189.914 227.843C192.421 229.027 194.742 230.572 196.802 232.427C200.853 235.993 204.301 240.19 207.013 244.856C209.808 249.625 212.21 254.614 214.195 259.773C214.477 260.349 214.723 260.974 214.955 261.587Z" fill="#FFB940"/>
<path d="M200.099 252.027C199.732 250.887 199.352 249.747 198.959 248.62C196.643 241.94 194.057 234.181 188.663 229.339C185.587 226.606 181.309 224.976 177.289 225.981C178.22 230.148 175.622 234.647 171.761 236.497C169.795 237.341 167.655 237.7 165.521 237.542C163.388 237.384 161.324 236.714 159.503 235.59C155.869 233.279 153.032 229.908 151.377 225.932C151.187 225.291 150.774 224.739 150.212 224.375C149.583 224.167 148.9 224.194 148.288 224.449C143.844 225.536 139.538 227.127 135.455 229.192C125.11 234.953 122.756 246.352 124.73 257.384C125.833 263.512 128.064 269.445 130.025 275.402C137.244 297.293 140.897 320.178 144.905 342.878C144.958 343.568 145.219 344.226 145.653 344.766C146.109 345.148 146.659 345.401 147.246 345.501C158.507 348.297 170.215 348.8 181.674 346.981C193.133 345.162 204.109 341.057 213.95 334.911C214.629 334.57 215.189 334.031 215.556 333.366C215.765 332.654 215.765 331.897 215.556 331.184C214.281 323.552 212.998 315.924 211.707 308.3C209.599 295.81 207.49 283.32 204.867 270.928C203.568 264.566 202.011 258.229 200.099 252.027Z" fill="#FFB940"/>
<path d="M180.585 224.792C181.079 227.709 180.656 230.709 179.374 233.376C178.092 236.043 176.014 238.247 173.427 239.684C168.426 242.295 162.273 241.474 157.493 238.397C152.712 235.321 149.231 230.234 146.964 224.718C146.728 223.832 146.196 223.053 145.456 222.512" stroke="black" stroke-width="0.52" stroke-miterlimit="10"/>
<path d="M124.729 257.385C125.832 263.514 128.062 269.446 130.024 275.403C137.243 297.295 140.896 320.179 144.904 342.879C144.957 343.569 145.218 344.227 145.652 344.767C146.108 345.149 146.658 345.403 147.245 345.502C158.506 348.298 170.214 348.802 181.673 346.982C193.132 345.163 204.108 341.058 213.949 334.912C214.628 334.571 215.188 334.033 215.555 333.368C215.764 332.655 215.764 331.898 215.555 331.186C214.28 323.554 212.997 315.926 211.706 308.302C209.598 295.811 207.489 283.321 204.866 270.929C203.518 264.58 201.961 258.243 199.963 252.041C199.596 250.901 199.216 249.761 198.823 248.633C196.507 241.953 193.921 234.194 188.527 229.353C187.62 228.547 186.62 227.852 185.549 227.281" stroke="black" stroke-width="0.52" stroke-miterlimit="10"/>
<path d="M326.716 449.823L347.676 478.468C347.676 478.468 392.746 465.194 404.623 446.685C404.623 446.685 397.636 439.699 362.703 444.234L351.169 428.863L326.716 449.823Z" fill="#D68060"/>
<path d="M136.657 356.104C136.657 356.104 141.695 384.406 162.63 387.507C179.202 389.958 222.531 379.392 239.851 374.87C242.083 374.291 244.43 374.32 246.648 374.953C248.866 375.587 250.874 376.802 252.464 378.473L325.124 454.578L360.793 430.542L274.281 312.296C274.281 312.296 227.373 308.423 136.657 356.104Z" fill="#9E4963"/>
<path d="M155.875 326.574C155.875 326.574 152.688 356.886 173.623 359.987C190.195 362.439 228.094 350.5 245.414 345.99C247.646 345.412 249.991 345.44 252.208 346.072C254.425 346.703 256.434 347.914 258.027 349.581L324.767 426.532" stroke="black" stroke-width="0.52" stroke-miterlimit="10"/>
<path d="M306.32 439.551L350.937 409.41" stroke="black" stroke-width="0.52" stroke-miterlimit="10"/>
<path d="M196.422 321.12L210.603 314.256C212.475 313.196 214.529 312.498 216.658 312.197C218.234 312.138 219.808 312.319 221.328 312.736C227.457 314.121 235.363 316.524 241.43 312.957C247.498 309.39 243.698 303.899 239.408 300.699C234.039 296.655 227.151 294.154 220.348 295.012C218.171 295.342 216.026 295.859 213.937 296.557C206.065 299.005 198.353 301.94 190.845 305.345C191.965 310.171 193.419 314.914 195.196 319.539C195.588 320.532 195.723 320.225 196.422 321.12Z" fill="#D68060"/>
<path d="M149.183 308.584C150.408 313.879 153.62 317.654 160.288 315.092C172.545 310.373 184.802 305.716 197.341 301.769C198.101 301.536 199.401 301.009 199.658 301.769C202.575 310.006 204.794 318.598 207.012 327.031C207.116 327.32 207.116 327.637 207.012 327.926C206.892 328.126 206.718 328.287 206.51 328.392C192.708 337.241 178.747 345.846 163.818 352.685L160.876 354.021C147.785 359.819 129.657 369.049 122.45 350.246C116.027 333.491 115.353 313.756 115.598 296.008C115.749 285.537 116.625 275.089 118.221 264.74C119.704 255.142 120.795 243.768 126.151 235.506C130.539 228.728 139.634 227.147 143.802 235.126C148.582 244.344 147.05 257.263 147.369 267.314C147.369 274.325 147.822 281.361 148.055 288.359C148.263 294.917 147.663 302.149 149.183 308.584Z" fill="#FFB940"/>
<path d="M135.308 229.743C138.58 229.584 141.792 231.202 143.802 235.1C148.582 244.317 147.05 257.236 147.369 267.287C147.369 274.298 147.822 281.334 148.055 288.333C148.264 294.915 147.663 302.147 149.183 308.582C150.409 313.877 153.62 317.652 160.288 315.09C172.545 310.371 184.802 305.713 197.341 301.767C198.101 301.534 199.401 301.007 199.658 301.767" stroke="black" stroke-width="0.52" stroke-miterlimit="10"/>
<path d="M186.544 305.998L195.504 335.33" stroke="black" stroke-width="0.52" stroke-miterlimit="10"/>
<path d="M294.612 300.537L207.564 318.231C206.721 318.402 206.177 319.224 206.348 320.067L207.169 324.102C207.34 324.945 208.162 325.489 209.004 325.318L296.052 307.623C296.895 307.452 297.439 306.63 297.267 305.788L296.447 301.752C296.276 300.91 295.454 300.365 294.612 300.537Z" fill="#CCCCCC"/>
<path d="M218.265 319.098L214.409 319.881C214.283 319.907 214.201 320.03 214.227 320.156L214.522 321.609C214.548 321.735 214.671 321.817 214.797 321.791L218.653 321.007C218.779 320.982 218.86 320.859 218.835 320.733L218.539 319.279C218.514 319.153 218.391 319.072 218.265 319.098Z" fill="#787878"/>
<path d="M225.13 317.648L221.274 318.432C221.148 318.458 221.067 318.581 221.092 318.707L221.388 320.16C221.413 320.286 221.536 320.368 221.662 320.342L225.518 319.558C225.644 319.533 225.725 319.41 225.7 319.284L225.404 317.83C225.379 317.704 225.256 317.623 225.13 317.648Z" fill="#787878"/>
<path d="M341.512 225.295L256.067 242.663L256.006 315.9L341.451 298.532L341.512 225.295Z" fill="#8A8A8A"/>
<path d="M345.421 224.498L259.976 241.867L259.915 315.103L345.36 297.735L345.421 224.498Z" fill="#F2F2F2"/>
<path d="M310.214 278.031C314.768 274.881 315.906 268.636 312.756 264.081C309.606 259.527 303.361 258.389 298.807 261.539C294.252 264.689 293.114 270.934 296.264 275.488C299.414 280.043 305.659 281.181 310.214 278.031Z" fill="#D9D9D9"/>
</svg>
