<svg width="17" height="17" viewBox="0 0 17 17" fill="none" xmlns="http://www.w3.org/2000/svg">
<path d="M4.46582 0.0630855C3.78184 0.262304 3.25059 0.806835 3.07461 1.48418C2.96836 1.88594 3.02148 2.50019 3.19082 2.82891C3.22402 2.89531 3.25391 2.96172 3.25391 2.97168C3.25391 2.98164 2.52344 2.98828 1.62695 2.98828H0V4.98047V6.97266H0.498047H0.996094V11.9863V17H8.5H16.0039V11.9863V6.97266H16.502H17V4.98047V2.98828H15.373C14.4799 2.98828 13.7461 2.98164 13.7461 2.97168C13.7461 2.96172 13.776 2.89531 13.8092 2.82891C13.9785 2.50019 14.0316 1.88594 13.9254 1.48418C13.7461 0.793554 13.185 0.232421 12.4943 0.0531245C12.2354 -0.0132817 11.7273 -0.016602 11.475 0.0498042C11.2027 0.119531 10.8475 0.315429 10.6383 0.504687C10.542 0.594335 10.3195 0.866601 10.1469 1.1123C9.80156 1.59375 9.25371 2.18809 8.79219 2.57988L8.5 2.82559L8.21113 2.57988C7.74629 2.18809 7.19844 1.59375 6.85313 1.1123C6.68047 0.866601 6.45801 0.594335 6.36172 0.504687C6.15254 0.315429 5.79727 0.119531 5.525 0.0498042C5.2627 -0.0199224 4.72148 -0.0132817 4.46582 0.0630855ZM5.35234 1.08574C5.5748 1.17207 5.7209 1.30488 5.93672 1.61699C6.19902 2.00547 6.41816 2.27441 6.78008 2.66621L7.08223 2.99492L5.95664 2.98164L4.83105 2.97168L4.64844 2.88535C4.38945 2.7625 4.26992 2.64961 4.15371 2.41719C3.91133 1.93242 4.09727 1.37461 4.58867 1.13223C4.82773 1.01269 5.11992 0.992773 5.35234 1.08574ZM12.3682 1.10898C12.6105 1.22187 12.7334 1.33809 12.8463 1.56719C12.9924 1.85273 12.9924 2.13164 12.8463 2.41719C12.7301 2.64961 12.6105 2.7625 12.3516 2.88535L12.1689 2.97168L11.0434 2.98164L9.91777 2.99492L10.2199 2.66621C10.5818 2.27441 10.801 2.00547 11.0633 1.61699C11.3654 1.17539 11.5912 1.03262 11.9863 1.03262C12.1457 1.0293 12.2453 1.04922 12.3682 1.10898ZM7.00586 4.98047V5.97656H4.00098H0.996094V4.98047V3.98437H4.00098H7.00586V4.98047ZM8.99805 9.99414V16.0039H8.5H8.00195V9.99414V3.98437H8.5H8.99805V9.99414ZM16.0039 4.98047V5.97656H12.999H9.99414V4.98047V3.98437H12.999H16.0039V4.98047ZM7.00586 11.4883V16.0039H4.49902H1.99219V11.4883V6.97266H4.49902H7.00586V11.4883ZM15.0078 11.4883V16.0039H12.501H9.99414V11.4883V6.97266H12.501H15.0078V11.4883Z" fill="#D92E15"/>
</svg>
