<svg width="35" height="35" viewBox="0 0 35 35" fill="none" xmlns="http://www.w3.org/2000/svg">
<g clip-path="url(#clip0_1427:2872)">
<path d="M9.03486 13.9609C7.38507 13.9609 6.04297 15.303 6.04297 16.9528V25.0642C6.04297 26.714 7.38507 28.0561 9.03486 28.0561C10.6847 28.0561 12.0268 26.714 12.0268 25.0642V16.9528C12.0268 15.303 10.6847 13.9609 9.03486 13.9609Z" fill="white"/>
<path d="M4.0571 16.9552C4.0571 16.6675 4.09506 16.3896 4.14207 16.1152C2.94012 16.5037 2.0625 17.6202 2.0625 18.9498V23.072C2.0625 24.4017 2.94012 25.5181 4.14207 25.9066C4.09506 25.6322 4.0571 25.3543 4.0571 25.0666V16.9552Z" fill="white"/>
<path d="M24.9937 13.9609C23.3439 13.9609 22.0018 15.303 22.0018 16.9528V25.0642C22.0018 26.714 23.3439 28.0561 24.9937 28.0561C25.2936 28.0561 25.5776 27.9984 25.8509 27.9159C25.4796 29.1465 24.3491 30.0507 22.9991 30.0507H19.8235C19.4104 28.8924 18.3138 28.0561 17.0153 28.0561C15.3655 28.0561 14.0234 29.3982 14.0234 31.048C14.0234 32.6978 15.3655 34.0399 17.0153 34.0399C18.3138 34.0399 19.4104 33.2036 19.8235 32.0453H22.9991C25.7485 32.0453 27.9856 29.8082 27.9856 27.0588V25.0642V16.9528C27.9856 15.303 26.6435 13.9609 24.9937 13.9609Z" fill="white"/>
<path d="M29.9023 16.1133C29.9493 16.3877 29.9873 16.6656 29.9873 16.9533V25.0646C29.9873 25.3523 29.9493 25.6302 29.9023 25.9046C31.1043 25.5161 31.9819 24.3997 31.9819 23.07V18.9479C31.9819 17.6182 31.1043 16.5018 29.9023 16.1133Z" fill="white"/>
<path d="M17.022 0C8.77286 0 2.0625 6.71036 2.0625 14.9595V14.9849C2.65669 14.5351 3.34416 14.2059 4.10277 14.0585C4.56891 7.33021 10.1775 1.9946 17.022 1.9946C23.8665 1.9946 29.475 7.33021 29.9412 14.0584C30.6997 14.2059 31.3872 14.5351 31.9815 14.9849V14.9595C31.9815 6.71036 25.2711 0 17.022 0Z" fill="white"/>
</g>
<defs>
<clipPath id="clip0_1427:2872">
<rect width="34.0411" height="34.0411" fill="white"/>
</clipPath>
</defs>
</svg>
