<svg width="23" height="23" viewBox="0 0 23 23" fill="none" xmlns="http://www.w3.org/2000/svg">
<path d="M0.718731 7.18746H22.2812C22.678 7.18746 22.9999 6.86544 22.9999 6.46873C22.9999 6.07197 22.6779 5.75 22.2812 5.75H0.718731C0.321965 5.75 0 6.07203 0 6.46873C0 6.86544 0.322025 7.18746 0.718731 7.18746Z" fill="white"/>
<path d="M22.2812 10.7812H0.718731C0.321965 10.7812 0 11.1033 0 11.5C0 11.8967 0.322025 12.2187 0.718731 12.2187H22.2812C22.678 12.2187 22.9999 11.8967 22.9999 11.5C22.9999 11.1033 22.678 10.7812 22.2812 10.7812Z" fill="white"/>
<path d="M22.2812 15.8125H7.90623C7.50946 15.8125 7.1875 16.1345 7.1875 16.5312C7.1875 16.928 7.50952 17.25 7.90623 17.25H22.2812C22.678 17.25 22.9999 16.9279 22.9999 16.5312C23 16.1345 22.678 15.8125 22.2812 15.8125Z" fill="white"/>
</svg>
