<svg width="17" height="17" viewBox="0 0 17 17" fill="none" xmlns="http://www.w3.org/2000/svg">
<path d="M8.1082 0.0830078C7.8791 0.189257 7.62012 0.43828 7.31133 0.84668C7.00254 1.25176 6.79004 1.48418 6.66719 1.54727C6.54766 1.61035 6.44805 1.58379 5.79395 1.32812C5.18965 1.09238 4.96387 1.0293 4.69492 1.0293C4.35625 1.0293 4.14043 1.13887 3.94785 1.40449C3.8084 1.59375 3.73203 1.88594 3.63574 2.55664C3.54277 3.2207 3.50957 3.35352 3.42324 3.4332C3.33359 3.51621 3.19746 3.54609 2.55664 3.63574C1.70332 3.75859 1.45762 3.84492 1.23184 4.10059C0.919727 4.45918 0.933008 4.82109 1.29824 5.7209C1.54395 6.33184 1.60371 6.52441 1.58047 6.62734C1.55391 6.73359 1.38457 6.89297 0.913086 7.25488C0.20918 7.79609 0 8.08164 0 8.5C0 8.91836 0.20918 9.20391 0.913086 9.74512C1.38457 10.107 1.55391 10.2664 1.58047 10.3727C1.60371 10.4756 1.54395 10.6682 1.29824 11.2791C0.933008 12.1789 0.919727 12.5408 1.23184 12.8994C1.45762 13.1551 1.70332 13.2414 2.55664 13.3643C3.19746 13.4539 3.33359 13.4838 3.42324 13.5668C3.50957 13.6465 3.54277 13.7793 3.63574 14.4434C3.73203 15.1141 3.8084 15.4062 3.94785 15.5955C4.14043 15.8611 4.35625 15.9707 4.69492 15.9707C4.96719 15.9707 5.19629 15.9076 5.80391 15.6686C6.375 15.4428 6.61406 15.3996 6.7502 15.4893C6.79668 15.5191 6.99922 15.7549 7.19844 16.0139C7.80273 16.7941 8.07168 17 8.5 17C8.90508 17 9.21719 16.7809 9.68867 16.1533C9.99746 15.7482 10.21 15.5158 10.3328 15.4527C10.4523 15.3896 10.6084 15.4295 11.2061 15.6719C12.0826 16.0271 12.5076 16.0637 12.843 15.8146C13.1318 15.5988 13.2414 15.3133 13.3643 14.4434C13.4572 13.7793 13.4904 13.6465 13.5768 13.5668C13.6664 13.4838 13.8025 13.4539 14.4434 13.3643C15.2967 13.2414 15.5424 13.1551 15.7682 12.8994C16.0803 12.5408 16.067 12.1789 15.7018 11.2791C15.4561 10.6682 15.3963 10.4756 15.4195 10.3727C15.4461 10.2664 15.6154 10.107 16.0869 9.74512C16.7908 9.20391 17 8.91836 17 8.5C17 8.08164 16.7908 7.79609 16.0869 7.25488C15.6154 6.89297 15.4461 6.73359 15.4195 6.62734C15.3963 6.52441 15.4561 6.33184 15.7018 5.7209C16.067 4.82109 16.0803 4.45918 15.7682 4.10059C15.5424 3.84492 15.2967 3.75859 14.4434 3.63574C13.8025 3.54609 13.6664 3.51621 13.5768 3.4332C13.4904 3.35352 13.4572 3.2207 13.3643 2.55664C13.268 1.88594 13.1916 1.59375 13.0521 1.40449C12.8596 1.13887 12.6438 1.0293 12.3018 1.0293C12.0395 1.0293 11.7572 1.10898 11.1562 1.34473C10.6117 1.55723 10.3826 1.60039 10.2498 1.51074C10.2033 1.48086 10.0008 1.24512 9.80156 0.986132C9.19727 0.205858 8.92832 0 8.5 0C8.34062 0 8.2377 0.023241 8.1082 0.0830078ZM8.69922 0.883204C8.77227 0.94961 8.96816 1.18535 9.1375 1.40781C9.67207 2.11172 9.92441 2.31426 10.3195 2.34746C10.5818 2.3707 10.874 2.29434 11.5215 2.03535C11.8236 1.91582 12.1391 1.80957 12.2254 1.79961C12.3682 1.78633 12.3814 1.79297 12.4279 1.8793C12.4877 1.99883 12.5342 2.22129 12.6006 2.73926C12.7002 3.47305 12.7832 3.72207 13.0123 3.96113C13.2414 4.20352 13.5137 4.2998 14.2607 4.39941C14.7754 4.46582 15.0012 4.5123 15.1174 4.56875C15.2568 4.6418 15.2369 4.78457 14.9945 5.39219C14.6791 6.18574 14.6592 6.25547 14.6592 6.57422C14.6592 7.05566 14.8186 7.2748 15.5922 7.8625C16.0338 8.19785 16.2363 8.39707 16.2363 8.5C16.2363 8.60293 16.0338 8.80215 15.5922 9.1375C14.8783 9.68203 14.6857 9.92773 14.6525 10.3361C14.6293 10.6084 14.6857 10.8209 14.9746 11.5547C15.1074 11.8934 15.207 12.1955 15.207 12.2652C15.207 12.4479 15.0809 12.4943 14.2607 12.6006C13.5137 12.7002 13.2414 12.7965 13.0123 13.0389C12.7832 13.2779 12.7002 13.527 12.6006 14.2607C12.5342 14.7754 12.4877 15.0012 12.4313 15.1174C12.3582 15.2568 12.2154 15.2369 11.6078 14.9945C10.8209 14.6824 10.7445 14.6625 10.4258 14.6592C10.1934 14.6592 10.1137 14.6725 9.97754 14.7389C9.76172 14.8451 9.51602 15.0941 9.1375 15.5922C8.80215 16.0338 8.60293 16.2363 8.5 16.2363C8.39707 16.2363 8.19785 16.0338 7.8625 15.5922C7.48398 15.0941 7.23828 14.8451 7.02246 14.7389C6.88301 14.6725 6.80996 14.6592 6.55762 14.6625C6.23223 14.6658 6.07949 14.709 5.3125 15.0277C5.10332 15.1141 4.86094 15.1904 4.77461 15.2004C4.63184 15.2137 4.61855 15.207 4.57207 15.1207C4.5123 15.0012 4.46582 14.7787 4.39941 14.2607C4.2998 13.527 4.2168 13.2779 3.9877 13.0389C3.75859 12.7965 3.48633 12.7002 2.73926 12.6006C2.22461 12.5342 1.99883 12.4877 1.88262 12.4313C1.74316 12.3582 1.76309 12.2154 2.00547 11.6078C2.3209 10.8143 2.34082 10.7445 2.34082 10.4258C2.34082 9.94434 2.18145 9.72519 1.40781 9.1375C0.966211 8.80215 0.763672 8.60293 0.763672 8.5C0.763672 8.39707 0.966211 8.19785 1.40781 7.8625C2.18145 7.2748 2.34082 7.05566 2.34082 6.57422C2.34082 6.25547 2.3209 6.18574 2.00547 5.39219C1.76309 4.78457 1.74316 4.6418 1.88594 4.57207C2.01211 4.50566 2.24453 4.45918 2.72266 4.39941C3.25059 4.33301 3.51289 4.27324 3.71543 4.17031C4.13711 3.95449 4.2832 3.6457 4.39941 2.72266C4.45918 2.23789 4.50566 2.01211 4.57207 1.8793C4.61855 1.79297 4.63184 1.78633 4.77461 1.79961C4.86094 1.80957 5.10332 1.88594 5.3125 1.97227C6.05957 2.28105 6.23223 2.33086 6.55762 2.3375C6.81328 2.34082 6.87969 2.32754 7.02246 2.26113C7.23828 2.15488 7.48398 1.90586 7.8625 1.40781C8.19785 0.966211 8.39707 0.763672 8.5 0.763672C8.53652 0.763672 8.62617 0.816797 8.69922 0.883204Z" fill="#D92E15"/>
<path d="M3.80039 6.75448L3.6875 6.86737V8.46443C3.6875 10.2209 3.6875 10.2076 3.88672 10.3105C4.07598 10.4101 4.3084 10.3437 4.40137 10.1611C4.44121 10.0814 4.45117 9.8988 4.45117 9.12849V8.19217L5.21152 9.20486C5.62988 9.76267 6.01172 10.2474 6.06152 10.2873C6.17109 10.3736 6.34043 10.3802 6.47988 10.3072C6.67246 10.2076 6.67578 10.181 6.67578 8.49764C6.67578 6.8076 6.67578 6.79432 6.4666 6.68475C6.32715 6.61502 6.12461 6.6449 6.01504 6.75448L5.92871 6.8408L5.91211 7.82693L5.89551 8.81306L5.11855 7.77381C4.65371 7.15291 4.30508 6.71795 4.24863 6.68807C4.08594 6.60506 3.92656 6.6283 3.80039 6.75448Z" fill="#D92E15"/>
<path d="M7.55039 6.70371C7.49394 6.74023 7.43086 6.8166 7.40762 6.87637C7.38437 6.94941 7.37109 7.45742 7.37109 8.50664C7.37109 10.1801 7.37441 10.2066 7.56699 10.3062C7.65 10.3494 7.80937 10.3594 8.5 10.3594C9.433 10.3594 9.49609 10.3461 9.58241 10.1436C9.64218 9.99746 9.64218 9.94766 9.57577 9.8082C9.48281 9.61562 9.40644 9.5957 8.73242 9.5957H8.13476V9.24707V8.89844H8.67597C8.97148 8.89844 9.26699 8.88184 9.33339 8.86523C9.51933 8.81211 9.60898 8.6959 9.60898 8.5C9.60898 8.3041 9.51933 8.18789 9.33339 8.13477C9.26699 8.11816 8.97148 8.10156 8.67597 8.10156H8.13476V7.75293V7.4043H8.73242C9.40644 7.4043 9.48281 7.38437 9.57577 7.1918C9.64218 7.05234 9.64218 7.00254 9.58241 6.85645C9.49609 6.65391 9.433 6.64062 8.49336 6.64062C7.72637 6.64062 7.64336 6.64727 7.55039 6.70371Z" fill="#D92E15"/>
<path d="M10.524 6.68672C10.4443 6.7332 10.3281 6.91914 10.3281 7.00215C10.3281 7.11836 11.0686 10.0336 11.125 10.1465C11.2346 10.3623 11.467 10.4221 11.6762 10.2959C11.7725 10.2361 11.8023 10.173 11.9916 9.60527L12.1975 8.98105L12.3867 9.54883C12.493 9.85762 12.5926 10.1465 12.6158 10.1863C12.6656 10.276 12.8184 10.359 12.9412 10.359C13.0674 10.359 13.2434 10.2461 13.2865 10.1365C13.3662 9.9207 14.0469 7.125 14.0469 7.00215C14.0469 6.81621 13.8775 6.64023 13.7016 6.64023C13.5422 6.64023 13.3961 6.7166 13.3363 6.83281C13.3131 6.88262 13.2035 7.28437 13.0973 7.72598C12.991 8.1709 12.898 8.53281 12.8848 8.53281C12.8748 8.53281 12.7951 8.31699 12.7088 8.05801C12.6059 7.74258 12.5262 7.55664 12.473 7.50684C12.317 7.36074 11.985 7.38398 11.8787 7.55C11.8521 7.58652 11.7592 7.83555 11.6729 8.10117L11.5135 8.58262L11.291 7.70937C11.1084 6.98223 11.0586 6.82617 10.9855 6.75312C10.8793 6.64687 10.6535 6.61367 10.524 6.68672Z" fill="#D92E15"/>
</svg>
