<svg width="26" height="26" viewBox="0 0 26 26" fill="none" xmlns="http://www.w3.org/2000/svg">
<g clip-path="url(#clip0_1755:9022)">
<path d="M20.3125 9.75H19.5V6.5C19.5 2.91525 16.5848 0 13 0C9.41525 0 6.5 2.91525 6.5 6.5V9.75H5.6875C4.34417 9.75 3.25 10.8431 3.25 12.1875V23.5625C3.25 24.9069 4.34417 26 5.6875 26H20.3125C21.6558 26 22.75 24.9069 22.75 23.5625V12.1875C22.75 10.8431 21.6558 9.75 20.3125 9.75ZM8.66667 6.5C8.66667 4.11017 10.6102 2.16667 13 2.16667C15.3898 2.16667 17.3333 4.11017 17.3333 6.5V9.75H8.66667V6.5ZM14.0833 18.1155V20.5833C14.0833 21.1813 13.5991 21.6667 13 21.6667C12.4009 21.6667 11.9167 21.1813 11.9167 20.5833V18.1155C11.2721 17.7396 10.8333 17.0484 10.8333 16.25C10.8333 15.0551 11.8051 14.0833 13 14.0833C14.1949 14.0833 15.1667 15.0551 15.1667 16.25C15.1667 17.0484 14.7279 17.7396 14.0833 18.1155Z" fill="#d92e15"/>
</g>
<defs>
<clipPath id="clip0_1755:9022">
<rect width="26" height="26" fill="white"/>
</clipPath>
</defs>
</svg>
