<svg width="23" height="23" viewBox="0 0 23 23" fill="none" xmlns="http://www.w3.org/2000/svg">
<path d="M16.9392 0.748127C16.2943 0.420011 15.5053 0.677105 15.1773 1.32233L5.43167 20.4906C5.10364 21.1357 5.36073 21.9245 6.00587 22.2525C6.19613 22.3492 6.39889 22.3951 6.59868 22.3951C7.07618 22.3951 7.53647 22.1332 7.76779 21.6783L17.5134 2.51005C17.8415 1.86491 17.5844 1.07616 16.9392 0.748127Z" fill="white"/>
<path d="M9.9394 7.05962C9.9394 4.3193 7.70994 2.08984 4.96961 2.08984C2.22946 2.08984 0 4.3193 0 7.05962C0 9.79986 2.22946 12.0293 4.9697 12.0293C7.71002 12.0293 9.9394 9.79986 9.9394 7.05962ZM4.9697 9.40859C3.67453 9.40859 2.62073 8.35479 2.62073 7.05962C2.62073 5.76437 3.67453 4.71058 4.9697 4.71058C6.26495 4.71058 7.31875 5.76428 7.31875 7.05962C7.31866 8.35479 6.26495 9.40859 4.9697 9.40859Z" fill="white"/>
<path d="M18.0284 10.9688C15.288 10.9688 13.0586 13.1982 13.0586 15.9384C13.0586 18.6787 15.288 20.9081 18.0284 20.9081C20.7686 20.9081 22.9981 18.6788 22.9981 15.9384C22.9981 13.1981 20.7687 10.9688 18.0284 10.9688ZM18.0284 18.2873C16.7331 18.2873 15.6793 17.2335 15.6793 15.9384C15.6793 14.6432 16.7331 13.5894 18.0284 13.5894C19.3235 13.5894 20.3773 14.6432 20.3773 15.9384C20.3773 17.2335 19.3236 18.2873 18.0284 18.2873Z" fill="white"/>
</svg>
