<svg version="1.1" xmlns="http://www.w3.org/2000/svg" xmlns:xlink="http://www.w3.org/1999/xlink" viewBox="0 0 172 172"><g fill="none" fill-rule="nonzero" stroke="none" stroke-width="1" stroke-linecap="butt" stroke-linejoin="miter" stroke-miterlimit="10" stroke-dasharray="" stroke-dashoffset="0" font-family="none" font-weight="none" font-size="none" text-anchor="none" style="mix-blend-mode: normal"><path d="M0,172v-172h172v172z" fill="none"></path><g fill="#d92e15"><path d="M21.5,17.2c-4.72418,0 -8.6,3.87582 -8.6,8.6c0,4.72418 3.87582,8.6 8.6,8.6c4.72418,0 8.6,-3.87582 8.6,-8.6c0,-1.30879 -0.32187,-2.53913 -0.85244,-3.65332c7.14374,1.8914 12.75122,7.77199 14.08418,15.34814l16.1292,91.59336c1.02026,5.79196 5.85694,10.07766 11.63184,10.56523c-1.41466,1.82064 -2.29277,4.07662 -2.29277,6.54658c0,5.91159 4.83841,10.75 10.75,10.75c5.91159,0 10.75,-4.83841 10.75,-10.75c0,-2.42512 -0.84443,-4.64604 -2.21299,-6.45h8.66299v-4.3h-24.58223c-4.18867,0 -7.74318,-2.98414 -8.46982,-7.10928l-2.91426,-16.54072h45.17939c1.25775,-1.5394 2.64894,-2.9584 4.11524,-4.3h-11.17832c0,-1.18741 -0.96259,-2.15 -2.15,-2.15c-1.18741,0 -2.15,0.96259 -2.15,2.15h-8.6c0,-1.18741 -0.96259,-2.15 -2.15,-2.15c-1.18741,0 -2.15,0.96259 -2.15,2.15h-21.67217l-10.18311,-57.83584l58.24736,4.75772c-0.37927,0.39877 -0.59118,0.9278 -0.59209,1.47812c0,1.18741 0.96259,2.15 2.15,2.15c1.18741,0 2.15,-0.96259 2.15,-2.15c0.00084,-0.43105 -0.12791,-0.85241 -0.36953,-1.20938l38.54463,3.14941l-9.37686,39.06113c1.4534,0.10535 2.88335,0.28165 4.2916,0.5375l10.43506,-43.47451l-6.39121,-0.5207l-32.83369,-32.83369l-18.275,18.275l-13.975,-13.975l-21.46641,21.4664l-13.31152,-1.0876l-1.50332,-8.54121c-1.98655,-11.29096 -11.82339,-19.54736 -23.28887,-19.54736zM21.5,21.5c2.40029,0 4.3,1.89971 4.3,4.3c0,2.40029 -1.89971,4.3 -4.3,4.3c-2.40029,0 -4.3,-1.89971 -4.3,-4.3c0,-2.40029 1.89971,-4.3 4.3,-4.3zM116.1,26.69023l26.21152,26.21153l-33.17803,-2.7085l-8.26826,-8.26826zM83.85,30.99023l18.66133,18.66133l-34.50498,-2.81768zM58.05,53.75c-1.18741,0 -2.15,0.96259 -2.15,2.15c0,1.18741 0.96259,2.15 2.15,2.15c1.18741,0 2.15,-0.96259 2.15,-2.15c0,-1.18741 -0.96259,-2.15 -2.15,-2.15zM64.5,60.2c-1.18741,0 -2.15,0.96259 -2.15,2.15c0,1.18741 0.96259,2.15 2.15,2.15c1.18741,0 2.15,-0.96259 2.15,-2.15c0,-1.18741 -0.96259,-2.15 -2.15,-2.15zM116.1,60.2c-1.18741,0 -2.15,0.96259 -2.15,2.15c0,1.18741 0.96259,2.15 2.15,2.15c1.18741,0 2.15,-0.96259 2.15,-2.15c0,-1.18741 -0.96259,-2.15 -2.15,-2.15zM141.9,60.2c-1.18741,0 -2.15,0.96259 -2.15,2.15c0,1.18741 0.96259,2.15 2.15,2.15c1.18741,0 2.15,-0.96259 2.15,-2.15c0,-1.18741 -0.96259,-2.15 -2.15,-2.15zM70.95,66.65c-1.18741,0 -2.15,0.96259 -2.15,2.15c0,1.18741 0.96259,2.15 2.15,2.15c1.18741,0 2.15,-0.96259 2.15,-2.15c0,-1.18741 -0.96259,-2.15 -2.15,-2.15zM122.55,66.65c-1.18741,0 -2.15,0.96259 -2.15,2.15c0,1.18741 0.96259,2.15 2.15,2.15c1.18741,0 2.15,-0.96259 2.15,-2.15c0,-1.18741 -0.96259,-2.15 -2.15,-2.15zM135.45,66.65c-1.18741,0 -2.15,0.96259 -2.15,2.15c0,1.18741 0.96259,2.15 2.15,2.15c1.18741,0 2.15,-0.96259 2.15,-2.15c0,-1.18741 -0.96259,-2.15 -2.15,-2.15zM64.5,73.1c-1.18741,0 -2.15,0.96259 -2.15,2.15c0,1.18741 0.96259,2.15 2.15,2.15c1.18741,0 2.15,-0.96259 2.15,-2.15c0,-1.18741 -0.96259,-2.15 -2.15,-2.15zM77.4,73.1c-1.18741,0 -2.15,0.96259 -2.15,2.15c0,1.18741 0.96259,2.15 2.15,2.15c1.18741,0 2.15,-0.96259 2.15,-2.15c0,-1.18741 -0.96259,-2.15 -2.15,-2.15zM129,73.1c-1.18741,0 -2.15,0.96259 -2.15,2.15c0,1.18741 0.96259,2.15 2.15,2.15c1.18741,0 2.15,-0.96259 2.15,-2.15c0,-1.18741 -0.96259,-2.15 -2.15,-2.15zM58.05,79.55c-1.18741,0 -2.15,0.96259 -2.15,2.15c0,1.18741 0.96259,2.15 2.15,2.15c1.18741,0 2.15,-0.96259 2.15,-2.15c0,-1.18741 -0.96259,-2.15 -2.15,-2.15zM83.85,79.55c-1.18741,0 -2.15,0.96259 -2.15,2.15c0,1.18741 0.96259,2.15 2.15,2.15c1.18741,0 2.15,-0.96259 2.15,-2.15c0,-1.18741 -0.96259,-2.15 -2.15,-2.15zM135.45,79.55c-1.18741,0 -2.15,0.96259 -2.15,2.15c0,1.18741 0.96259,2.15 2.15,2.15c1.18741,0 2.15,-0.96259 2.15,-2.15c0,-1.18741 -0.96259,-2.15 -2.15,-2.15zM64.5,86c-1.18741,0 -2.15,0.96259 -2.15,2.15c0,1.18741 0.96259,2.15 2.15,2.15c1.18741,0 2.15,-0.96259 2.15,-2.15c0,-1.18741 -0.96259,-2.15 -2.15,-2.15zM90.3,86c-1.18741,0 -2.15,0.96259 -2.15,2.15c0,1.18741 0.96259,2.15 2.15,2.15c1.18741,0 2.15,-0.96259 2.15,-2.15c0,-1.18741 -0.96259,-2.15 -2.15,-2.15zM129,86c-1.18741,0 -2.15,0.96259 -2.15,2.15c0,1.18741 0.96259,2.15 2.15,2.15c1.18741,0 2.15,-0.96259 2.15,-2.15c0,-1.18741 -0.96259,-2.15 -2.15,-2.15zM70.95,92.45c-1.18741,0 -2.15,0.96259 -2.15,2.15c0,1.18741 0.96259,2.15 2.15,2.15c1.18741,0 2.15,-0.96259 2.15,-2.15c0,-1.18741 -0.96259,-2.15 -2.15,-2.15zM96.75,92.45c-1.18741,0 -2.15,0.96259 -2.15,2.15c0,1.18741 0.96259,2.15 2.15,2.15c1.18741,0 2.15,-0.96259 2.15,-2.15c0,-1.18741 -0.96259,-2.15 -2.15,-2.15zM122.55,92.45c-1.18741,0 -2.15,0.96259 -2.15,2.15c0,1.18741 0.96259,2.15 2.15,2.15c1.18741,0 2.15,-0.96259 2.15,-2.15c0,-1.18741 -0.96259,-2.15 -2.15,-2.15zM77.4,98.9c-1.18741,0 -2.15,0.96259 -2.15,2.15c0,1.18741 0.96259,2.15 2.15,2.15c1.18741,0 2.15,-0.96259 2.15,-2.15c0,-1.18741 -0.96259,-2.15 -2.15,-2.15zM103.2,98.9c-1.18741,0 -2.15,0.96259 -2.15,2.15c0,1.18741 0.96259,2.15 2.15,2.15c1.18741,0 2.15,-0.96259 2.15,-2.15c0,-1.18741 -0.96259,-2.15 -2.15,-2.15zM116.1,98.9c-1.18741,0 -2.15,0.96259 -2.15,2.15c0,1.18741 0.96259,2.15 2.15,2.15c1.18741,0 2.15,-0.96259 2.15,-2.15c0,-1.18741 -0.96259,-2.15 -2.15,-2.15zM137.6,103.2c-18.9673,0 -34.4,15.4327 -34.4,34.4c0,18.9673 15.4327,34.4 34.4,34.4c18.9673,0 34.4,-15.4327 34.4,-34.4c0,-18.9673 -15.4327,-34.4 -34.4,-34.4zM137.6,107.5c16.598,0 30.1,13.502 30.1,30.1c0,16.598 -13.502,30.1 -30.1,30.1c-16.598,0 -30.1,-13.502 -30.1,-30.1c0,-16.598 13.502,-30.1 30.1,-30.1zM137.5958,113.95c-1.1868,0 -2.15,0.9632 -2.15,2.15v20.49219l-12.12314,10.10752c-0.9116,0.75895 -1.03825,2.11604 -0.27715,3.02764c0.4257,0.50955 1.03744,0.77266 1.65449,0.77266c0.4859,0 0.97529,-0.16431 1.37734,-0.49971l13.67266,-11.39248v-22.50781c0,-1.1868 -0.9674,-2.15 -2.1542,-2.15zM79.55,139.75c3.5877,0 6.45,2.8623 6.45,6.45c0,3.5877 -2.8623,6.45 -6.45,6.45c-3.5877,0 -6.45,-2.8623 -6.45,-6.45c0,-3.5877 2.8623,-6.45 6.45,-6.45zM79.55,144.05c-1.18741,0 -2.15,0.96259 -2.15,2.15c0,1.18741 0.96259,2.15 2.15,2.15c1.18741,0 2.15,-0.96259 2.15,-2.15c0,-1.18741 -0.96259,-2.15 -2.15,-2.15z"></path></g></g></svg>