<svg width="23" height="23" viewBox="0 0 23 23" fill="none" xmlns="http://www.w3.org/2000/svg">
<path d="M11.5 0C5.14939 0 0 5.14838 0 11.4995C0 17.8506 5.14888 22.999 11.5 22.999C17.8516 22.999 23 17.8506 23 11.4995C23 5.14838 17.8516 0 11.5 0ZM11.5 3.43848C13.6014 3.43848 15.3042 5.14181 15.3042 7.24218C15.3042 9.34305 13.6014 11.0459 11.5 11.0459C9.39963 11.0459 7.69681 9.34305 7.69681 7.24218C7.69681 5.14181 9.39963 3.43848 11.5 3.43848ZM11.4975 19.9924C9.40165 19.9924 7.48212 19.2291 6.00156 17.9658C5.64089 17.6581 5.43277 17.2071 5.43277 16.7337C5.43277 14.6036 7.15681 12.8987 9.28749 12.8987H13.7135C15.8447 12.8987 17.5622 14.6036 17.5622 16.7337C17.5622 17.2076 17.3551 17.6576 16.9939 17.9653C15.5138 19.2291 13.5938 19.9924 11.4975 19.9924Z" fill="white"/>
</svg>
