<svg width="18" height="18" viewBox="0 0 18 18" fill="none" xmlns="http://www.w3.org/2000/svg">
<g clip-path="url(#clip0_2823:3927)">
<path d="M9.00062 0.316528C4.20496 0.316528 0.316406 4.20432 0.316406 9.00036C0.316406 13.7964 4.20458 17.6842 9.00062 17.6842C13.797 17.6842 17.6848 13.7964 17.6848 9.00036C17.6848 4.20432 13.797 0.316528 9.00062 0.316528ZM9.00062 2.91309C10.5875 2.91309 11.8734 4.19936 11.8734 5.78545C11.8734 7.37192 10.5875 8.65781 9.00062 8.65781C7.41453 8.65781 6.12864 7.37192 6.12864 5.78545C6.12864 4.19936 7.41453 2.91309 9.00062 2.91309ZM8.99871 15.4138C7.41605 15.4138 5.96652 14.8374 4.84848 13.8834C4.57612 13.6511 4.41896 13.3104 4.41896 12.953C4.41896 11.3444 5.72086 10.057 7.32984 10.057H10.6722C12.2815 10.057 13.5785 11.3444 13.5785 12.953C13.5785 13.3108 13.4221 13.6507 13.1493 13.883C12.0317 14.8374 10.5817 15.4138 8.99871 15.4138Z" fill="#D92E15"/>
</g>
<defs>
<clipPath id="clip0_2823:3927">
<rect width="17.3684" height="17.3684" fill="white" transform="translate(0.316406 0.315552)"/>
</clipPath>
</defs>
</svg>
