<svg width="19" height="19" viewBox="0 0 19 19" fill="none" xmlns="http://www.w3.org/2000/svg">
<g clip-path="url(#clip0_1723:16467)">
<path d="M2.28208 10.3761C2.24541 10.0706 2.22656 9.76701 2.22656 9.5C2.22656 5.51437 5.51437 2.22656 9.5 2.22656C11.3591 2.22656 13.0996 2.97614 14.3799 4.14509L13.7379 4.79827C13.5932 4.94294 13.5375 5.15443 13.5932 5.35491C13.66 5.54408 13.8158 5.6889 14.0162 5.7334C14.1282 5.75587 17.8093 6.94206 17.5749 6.89495C17.8731 6.99425 18.3141 6.67621 18.2319 6.23814C18.2093 6.12595 17.3943 2.03681 17.4414 2.27106C17.3969 2.07073 17.2521 1.90374 17.0518 1.84808C16.8626 1.79241 16.6509 1.84808 16.5063 1.99274L15.9608 2.52706C14.2797 0.957451 11.9714 0 9.5 0C4.27874 0 0 4.27874 0 9.5V9.52218C0 9.83601 0.0143509 10.0785 0.0310211 10.2641C0.0531998 10.5099 0.234398 10.7113 0.476479 10.7598L1.62006 10.9884C1.99231 11.0629 2.32702 10.7508 2.28208 10.3761Z" fill="white"/>
<path d="M18.526 8.23928L17.3791 8.00561C17.0064 7.92965 16.6693 8.24203 16.7151 8.61849C16.7549 8.94334 16.7726 9.25921 16.7726 9.49998C16.7726 13.4855 13.4847 16.7734 9.49912 16.7734C7.64002 16.7734 5.89951 16.0238 4.61923 14.8437L5.26126 14.2017C5.40592 14.057 5.46159 13.8456 5.40592 13.6451C5.3391 13.4558 5.18327 13.3111 4.98293 13.2666C4.87088 13.244 1.18981 12.0579 1.4242 12.105C1.23489 12.0717 1.04557 12.1274 0.923228 12.2609C0.789577 12.3834 0.733913 12.5837 0.767253 12.7618C0.789867 12.8739 1.60497 16.9259 1.55786 16.6917C1.60221 16.8921 1.74703 17.0591 1.94736 17.1147C2.17973 17.1729 2.37368 17.1025 2.49284 16.97L3.0273 16.4357C4.70824 18.0054 7.01656 19 9.49912 19C14.7204 19 18.9991 14.7212 18.9991 9.49998V9.4665C18.9991 9.21978 18.9901 8.97755 18.9695 8.73678C18.9484 8.49078 18.7679 8.28871 18.526 8.23928Z" fill="white"/>
</g>
<defs>
<clipPath id="clip0_1723:16467">
<rect width="19" height="19" fill="white"/>
</clipPath>
</defs>
</svg>
