<svg width="25" height="25" viewBox="0 0 25 25" fill="none" xmlns="http://www.w3.org/2000/svg">
<path fill-rule="evenodd" clip-rule="evenodd" d="M25 25H0V12.0891C0 5.4308 5.19509 0 11.5644 0H25V25Z" fill="white"/>
<path fill-rule="evenodd" clip-rule="evenodd" d="M17.5698 17.6374V12.7166C17.5672 11.5327 17.052 10.398 16.137 9.56085C15.2219 8.72372 13.9816 8.25236 12.6875 8.24996H12.2688C10.9946 8.25315 9.7735 8.71767 8.87246 9.54199C7.97142 10.3663 7.46367 11.4834 7.46018 12.6492V12.7847C7.46389 14.0699 8.02358 15.3014 9.01691 16.2102C10.0102 17.1189 11.3564 17.631 12.7612 17.6344L17.5698 17.6374ZM20.0325 19.8911H12.7645C10.7064 19.8877 8.7336 19.1382 7.27828 17.8068C5.82296 16.4754 5.00372 14.6706 5 12.7877V12.6522C5.00285 10.8887 5.76984 9.19823 7.13286 7.95126C8.49588 6.7043 10.3437 6.0026 12.2713 6H12.69C14.636 6.0034 16.5012 6.71213 17.8772 7.97099C19.2533 9.22985 20.028 10.9363 20.0317 12.7166L20.0325 19.8911Z" fill="black"/>
</svg>
