<svg width="19" height="19" viewBox="0 0 19 19" fill="none" xmlns="http://www.w3.org/2000/svg">
<path d="M5.67728 0.219739C2.70482 0.69845 0.519076 2.8879 0.0589196 5.84923C-0.0190101 6.33537 -0.0190101 7.26681 0.0552087 7.76777C0.207357 8.78085 0.552474 9.67894 1.1054 10.5064C1.72884 11.4342 2.45618 12.1021 3.46185 12.6626L3.85892 12.8889L3.62884 13.0225C2.99798 13.3899 2.5304 13.7573 1.66575 14.5588C1.13138 15.0524 1.02747 15.1971 0.982946 15.5199C0.949544 15.7501 1.04232 16.0655 1.19818 16.2399C1.33177 16.3957 2.12591 17.0043 2.70853 17.3939C3.614 18.0063 4.71243 18.4702 5.77005 18.6817C6.90931 18.9155 8.95029 18.9155 10.0562 18.6854C11.2734 18.433 12.3681 17.9432 13.4405 17.1751C13.7856 16.9264 13.8599 16.8893 14.0863 16.8485C16.6431 16.392 18.6173 14.3064 18.9625 11.7014C19.0293 11.2189 18.9921 10.2578 18.8919 9.7494C18.7361 8.98126 18.4355 8.25394 17.9939 7.58966C17.6524 7.07755 17.389 6.77326 16.9882 6.42072C16.2163 5.74904 15.3888 5.31486 14.4091 5.06622C14.1086 4.99201 13.4665 4.89923 13.2253 4.89923H13.0398L12.9544 4.64689C12.5165 3.37774 11.6593 2.21251 10.5572 1.41095C9.78903 0.846891 8.77595 0.42384 7.77396 0.242005C7.247 0.145521 6.20052 0.134387 5.67728 0.219739ZM7.41029 0.87286C7.87041 0.935948 8.04483 0.976768 8.49756 1.12149C9.13961 1.3256 9.8632 1.71896 10.3902 2.14201C10.5015 2.23478 10.598 2.32013 10.6054 2.33497C10.6091 2.34611 10.0488 2.9213 9.35856 3.61154L8.10426 4.86583L7.95583 4.68771C7.40286 4.01974 6.99838 3.2256 6.772 2.36095C6.67923 2.00099 6.5679 1.23283 6.5679 0.958216V0.817198H6.8017C6.92786 0.817198 7.20247 0.843175 7.41029 0.87286ZM6.11888 2.52794C6.37122 3.49649 6.85365 4.45392 7.4474 5.14787L7.62181 5.34826L7.13197 5.8381L6.64213 6.32794L4.65306 4.3426L2.66771 2.35724L2.84584 2.19767C3.55463 1.56681 4.71615 1.05099 5.80716 0.883994C5.87767 0.87286 5.88509 0.909971 5.94447 1.48517C5.98157 1.85997 6.04838 2.26447 6.11888 2.52794ZM11.5702 3.41486C11.8448 3.81192 12.0601 4.20529 12.2048 4.57638C12.3421 4.91779 12.3421 4.93635 12.2419 4.93635C12.0861 4.93635 11.4218 5.08849 11.0878 5.19982C10.5534 5.37794 10.0784 5.61544 9.57007 5.94943C9.47728 6.01251 9.47355 6.0088 9.18042 5.80841C9.02082 5.69708 8.82041 5.54865 8.73878 5.47814L8.59036 5.34826L9.85211 4.08654L11.1138 2.82111L11.2326 2.95841C11.2994 3.03634 11.4515 3.24044 11.5702 3.41486ZM4.18548 4.83615L6.1597 6.81037L5.68099 7.28908L5.19857 7.76777L5.06497 7.66015C3.85521 6.69533 2.68997 6.22033 1.18704 6.08302C0.930992 6.06076 0.719466 6.03849 0.715756 6.03478C0.712045 6.03107 0.741732 5.86037 0.782549 5.64885C0.908724 4.99943 1.17591 4.29806 1.52474 3.72658C1.71771 3.40372 2.12963 2.85822 2.18157 2.85822C2.19642 2.85822 3.09818 3.74885 4.18548 4.83615ZM13.73 5.62287C14.2644 5.70451 14.4054 5.75274 14.4462 5.87521C14.4648 5.93458 14.4722 5.98654 14.4685 5.99024C14.4611 5.99767 14.1234 6.23146 13.7226 6.50978C13.2625 6.82892 12.973 7.01076 12.9433 6.9922C12.8951 6.96251 11.5332 6.01251 11.5109 5.99396C11.5034 5.98654 11.5072 5.93087 11.522 5.86779C11.5442 5.76388 11.5628 5.75274 11.8115 5.69708C12.4423 5.55978 13.1437 5.5301 13.73 5.62287ZM8.69425 6.30568L8.90948 6.46525L8.63489 6.75099C8.48274 6.91056 8.26378 7.16662 8.14507 7.32619L7.92984 7.6119L7.52532 7.21115L7.12454 6.81037L7.61436 6.32052L8.10426 5.83068L8.28978 5.99024C8.39367 6.0756 8.57554 6.22033 8.69425 6.30568ZM10.8503 6.33908C10.88 6.37619 11.2994 6.68048 11.7817 7.01447L12.6538 7.62679V8.22795V8.83284L11.8448 9.37092L11.0396 9.909L10.4273 9.66405C10.0896 9.53052 9.7964 9.40063 9.77413 9.37836C9.75186 9.35237 9.62198 9.04807 9.48472 8.70295C9.13216 7.81975 9.14698 7.84202 8.93547 7.73441L8.75368 7.64161L8.90583 7.45978C9.29176 6.99962 9.90029 6.50978 10.4681 6.20177L10.7427 6.05333L10.7649 6.16466C10.7798 6.22404 10.8169 6.30568 10.8503 6.33908ZM15.4853 6.20177C15.8044 6.36505 16.1495 6.59885 16.4724 6.86974L16.7433 7.09982L16.6357 7.14435C16.58 7.17033 16.5132 7.2297 16.4909 7.27794C16.4687 7.32619 16.3202 7.82713 16.1607 8.3912L15.8712 9.41545L15.3702 9.6455L14.8655 9.87191L14.0937 9.36347L13.3218 8.85138V8.2354V7.61934L14.2162 6.9922C14.706 6.6508 15.1327 6.33537 15.1625 6.29455C15.1921 6.25372 15.2144 6.19064 15.2144 6.15353C15.2144 6.06818 15.2144 6.06817 15.4853 6.20177ZM1.29838 6.77326C2.08509 6.8549 2.70111 7.03302 3.39505 7.37814C3.74017 7.54885 4.33021 7.92737 4.57513 8.13888L4.71243 8.25767L3.447 9.51934L2.18529 10.7811L2.0554 10.6327C1.83646 10.3803 1.49505 9.85701 1.30209 9.47481C0.93841 8.75486 0.723177 7.94219 0.678647 7.15177C0.656381 6.73986 0.660091 6.7176 0.726888 6.7176C0.763998 6.7176 1.02377 6.74357 1.29838 6.77326ZM7.12084 7.7715L7.58099 8.23168L7.45111 8.54335C7.22474 9.07778 7.01693 9.83847 7.01322 10.1502C7.0095 10.384 6.95384 10.3692 6.84993 10.1057C6.65697 9.62323 6.2265 8.91446 5.84798 8.46173L5.67728 8.25767L6.14857 7.78631C6.40834 7.52287 6.63099 7.31135 6.64213 7.31135C6.65325 7.31135 6.86849 7.51915 7.12084 7.7715ZM17.4817 8.02382C17.8269 8.55452 18.1126 9.26702 18.2314 9.89045C18.339 10.4545 18.3427 10.41 18.2054 10.4768L18.0829 10.5324L17.3259 10.0314C16.9103 9.75312 16.5615 9.52307 16.5577 9.51562C16.5466 9.50825 16.7433 8.79202 16.9622 8.04236L17.0365 7.79376H17.1849C17.3222 7.79376 17.337 7.80486 17.4817 8.02382ZM8.85012 8.95155L9.10244 9.58242L8.47902 10.2059L7.85559 10.833L7.74425 10.7736L7.63291 10.718L7.6589 10.3952C7.70344 9.81255 7.85186 9.27439 8.15244 8.63987L8.3603 8.20941L8.47902 8.26504C8.58663 8.31702 8.6238 8.3801 8.85012 8.95155ZM5.48431 9.10005C6.05208 9.86446 6.40091 10.6327 6.58275 11.5121C6.66068 11.8943 6.66068 11.9463 6.56048 11.9649C6.51224 11.976 6.30072 12.0205 6.08548 12.065C5.87025 12.1096 5.47318 12.2172 5.19857 12.31L4.70502 12.4732L4.49349 12.3916C3.96654 12.1876 3.31341 11.809 2.87552 11.4528C2.77532 11.3711 2.68255 11.2969 2.67142 11.2932C2.65286 11.2746 5.16517 8.75858 5.20228 8.75858C5.21713 8.75858 5.34329 8.91446 5.48431 9.10005ZM13.7597 9.95353C14.1494 10.217 14.4722 10.4508 14.4722 10.4768C14.4722 10.4991 14.3646 10.8887 14.2347 11.3377L14.0009 12.1541L12.9841 12.1653L11.9673 12.1727L11.7298 11.3303C11.6 10.8627 11.4923 10.4731 11.4886 10.4582C11.4812 10.4137 12.9655 9.434 13.0064 9.45626C13.0287 9.46736 13.3663 9.69004 13.7597 9.95353ZM10.2046 10.2986C10.5015 10.4174 10.7576 10.5287 10.7798 10.5472C10.8132 10.577 11.3921 12.5512 11.3736 12.5735C11.3698 12.5771 11.2177 12.5252 11.0396 12.451C10.1564 12.0948 9.12471 11.8869 8.16734 11.8721C7.67007 11.861 7.71461 11.8832 7.67007 11.6049C7.65518 11.5195 7.66635 11.5047 7.71461 11.5232C7.85931 11.5789 7.97438 11.5827 8.07454 11.5307C8.1339 11.4972 8.50128 11.1521 8.88721 10.7662C9.27686 10.3765 9.61088 10.0649 9.62943 10.0722C9.6517 10.0797 9.90774 10.1836 10.2046 10.2986ZM17.0327 10.6512C17.9642 11.2709 18.057 11.3155 18.2648 11.2041C18.339 11.1633 18.339 11.1707 18.3168 11.4008C18.2537 11.976 18.0904 12.6068 17.8788 13.0818L17.7638 13.3416L17.6599 13.2414L17.5597 13.1376H16.4501H15.3442L14.9843 12.7738L14.6244 12.4139L14.899 11.4528C15.0511 10.9258 15.181 10.4879 15.1847 10.4805C15.207 10.4582 16.0865 10.0574 16.1162 10.0574C16.131 10.0574 16.5429 10.3246 17.0327 10.6512ZM9.20269 12.6366C10.6351 12.9001 11.9599 13.516 12.9692 14.3918C13.5927 14.9373 14.1419 15.4643 14.1605 15.5347C14.2125 15.7352 14.153 15.7982 13.4405 16.3289C13.062 16.6146 12.5722 16.9486 12.3606 17.0785C11.4181 17.6389 10.3605 17.9952 9.23978 18.1287C8.64606 18.203 7.15795 18.1992 6.5679 18.1287C5.33959 17.9765 4.10013 17.5164 3.10189 16.841C2.67513 16.5515 1.78079 15.8799 1.71029 15.7945C1.6806 15.7611 1.65834 15.6795 1.65834 15.6127C1.65834 15.5126 1.71029 15.4457 2.02572 15.1488C3.00911 14.2248 3.63255 13.7684 4.50834 13.3379C5.30618 12.9482 5.97786 12.7405 6.90189 12.5957C7.35463 12.5252 8.73878 12.5512 9.20269 12.6366ZM14.4277 13.1857L14.7728 13.5346L14.5056 14.0727L14.2347 14.6145L13.8079 14.2248C13.255 13.7275 12.8097 13.3899 12.305 13.0856L11.9005 12.8406H12.9915H14.0826L14.4277 13.1857ZM17.274 13.9205C17.3333 14.0318 17.3296 14.0393 17.2405 14.1692C16.9586 14.5774 16.4168 15.0784 15.8898 15.416C15.6597 15.5645 14.9027 15.9541 14.8433 15.9578C14.8322 15.9578 14.8284 15.8354 14.8359 15.6869C14.847 15.4977 14.8322 15.3752 14.7913 15.2751L14.7356 15.1377L15.0659 14.4698L15.4 13.8055H16.3091H17.2146L17.274 13.9205Z" fill="white"/>
<path d="M4.8413 14.4912C4.76337 14.5655 4.74852 14.6174 4.74852 14.8067V15.0293H4.53329C4.40341 15.0293 4.28837 15.0516 4.24013 15.085C4.05458 15.2149 4.06943 15.5415 4.26611 15.6416C4.32548 15.6713 4.45907 15.6973 4.56298 15.6973H4.74852V15.9199C4.74852 16.1649 4.81161 16.2688 4.98973 16.3133C5.22352 16.3727 5.41649 16.1649 5.41649 15.8458V15.6973H5.71337H6.01024V15.9125C6.01024 16.15 6.08446 16.2688 6.25145 16.3133C6.48524 16.3727 6.67821 16.1649 6.67821 15.8531V15.6973H6.97508H7.27196V15.9088C7.27567 16.2131 7.41669 16.3578 7.66157 16.3133C7.84344 16.2799 7.91397 16.1723 7.93251 15.9199L7.94733 15.6973H8.24054H8.53367V15.8977C8.53367 16.176 8.64129 16.3096 8.86769 16.3096C9.09402 16.3096 9.20164 16.176 9.20164 15.8977V15.6973H9.49477H9.78798L9.8028 15.9199C9.82134 16.2057 9.91041 16.3096 10.1331 16.3096C10.352 16.3096 10.4634 16.1723 10.4634 15.9051V15.7047L10.6934 15.6899C10.8827 15.675 10.9347 15.6564 11.0088 15.5711C11.1276 15.4338 11.1239 15.252 10.9977 15.1258C10.9124 15.0442 10.8679 15.0293 10.6823 15.0293H10.4634V14.8104C10.4634 14.6248 10.4485 14.5803 10.3669 14.4949C10.2963 14.4244 10.2295 14.3985 10.1331 14.3985C9.90304 14.4021 9.79543 14.5395 9.79543 14.84V15.0293H9.49849H9.20164V14.84C9.20164 14.5395 9.09402 14.4021 8.86397 14.3985C8.76745 14.3985 8.70065 14.4244 8.63019 14.4949C8.54849 14.5803 8.53367 14.6248 8.53367 14.8104V15.0293H8.24054H7.94733L7.93251 14.8067C7.91397 14.5209 7.81008 14.3985 7.59852 14.3985C7.37215 14.3985 7.27196 14.5209 7.27196 14.8067V15.0293H6.9788H6.68563L6.67078 14.8067C6.65223 14.5209 6.54833 14.3985 6.3368 14.3985C6.11044 14.3985 6.01024 14.5209 6.01024 14.8067V15.0293H5.71708H5.42762L5.40536 14.7992C5.3868 14.61 5.36825 14.5506 5.28661 14.4838C5.15302 14.3688 4.96005 14.3688 4.8413 14.4912Z" fill="white"/>
</svg>
