<svg width="25" height="25" viewBox="0 0 25 25" fill="none" xmlns="http://www.w3.org/2000/svg">
<path d="M7.4701 0.28918C3.55897 0.919063 0.682995 3.79992 0.0775258 7.69641C-0.0250132 8.33606 -0.0250132 9.56164 0.072643 10.2208C0.272838 11.5538 0.72694 12.7355 1.45448 13.8243C2.27479 15.045 3.23182 15.9239 4.55506 16.6613L5.07753 16.9591L4.77479 17.1349C3.94471 17.6183 3.32948 18.1017 2.19178 19.1564C1.48866 19.8058 1.35194 19.9962 1.29335 20.421C1.2494 20.7238 1.37147 21.1388 1.57655 21.3683C1.75233 21.5734 2.79725 22.3741 3.56385 22.8868C4.75526 23.6925 6.20057 24.3029 7.59217 24.5812C9.0912 24.8888 11.7767 24.8888 13.2318 24.5861C14.8334 24.254 16.2738 23.6095 17.6849 22.5988C18.139 22.2716 18.2367 22.2228 18.5346 22.1691C21.8988 21.5685 24.4965 18.8243 24.9506 15.3966C25.0385 14.7618 24.9896 13.4972 24.8578 12.8282C24.6527 11.8175 24.2572 10.8605 23.6762 9.98645C23.2269 9.31262 22.8803 8.91223 22.3529 8.44836C21.3373 7.56457 20.2484 6.99328 18.9594 6.66613C18.5639 6.56848 17.7191 6.44641 17.4017 6.44641H17.1576L17.0453 6.11438C16.4691 4.44445 15.3412 2.91125 13.891 1.85656C12.8803 1.11438 11.5473 0.557734 10.2289 0.318477C9.53553 0.191524 8.15858 0.176875 7.4701 0.28918ZM9.75038 1.14855C10.3558 1.23156 10.5853 1.28527 11.181 1.4757C12.0258 1.74426 12.9779 2.26184 13.6713 2.81848C13.8178 2.94055 13.9447 3.05285 13.9545 3.07238C13.9594 3.08703 13.2221 3.84387 12.3139 4.75207L10.6635 6.40246L10.4682 6.16809C9.74061 5.28918 9.20839 4.24426 8.91053 3.10656C8.78846 2.63293 8.64198 1.62219 8.64198 1.26086V1.07531H8.9496C9.11561 1.07531 9.47694 1.10949 9.75038 1.14855ZM8.05116 3.32629C8.38319 4.6007 9.01796 5.86047 9.79921 6.77356L10.0287 7.03723L9.38417 7.68176L8.73964 8.32629L6.12245 5.71399L3.51014 3.10168L3.74452 2.89172C4.67714 2.06164 6.20546 1.38293 7.641 1.1632C7.73378 1.14855 7.74354 1.19738 7.82167 1.95422C7.87049 2.44738 7.95839 2.97961 8.05116 3.32629ZM15.224 4.49328C15.5853 5.01574 15.8685 5.53332 16.059 6.0216C16.2396 6.47082 16.2396 6.49524 16.1078 6.49524C15.9027 6.49524 15.0287 6.69543 14.5892 6.84192C13.8861 7.07629 13.2611 7.38879 12.5922 7.82824C12.4701 7.91125 12.4652 7.90637 12.0795 7.6427C11.8695 7.49621 11.6058 7.3009 11.4984 7.20813L11.3031 7.03723L12.9633 5.37707L14.6234 3.71203L14.7797 3.8927C14.8676 3.99523 15.0678 4.26379 15.224 4.49328ZM5.50721 6.3634L8.10487 8.96106L7.47499 9.59094L6.84022 10.2208L6.66444 10.0792C5.07264 8.80969 3.53944 8.18469 1.5619 8.00402C1.22499 7.97473 0.946666 7.94543 0.941784 7.94055C0.936901 7.93567 0.975963 7.71106 1.02967 7.43274C1.19569 6.57824 1.54725 5.65539 2.00624 4.90344C2.26014 4.47863 2.80214 3.76086 2.87049 3.76086C2.89003 3.76086 4.07655 4.93274 5.50721 6.3634ZM18.0658 7.39856C18.7689 7.50598 18.9545 7.56945 19.0082 7.73059C19.0326 7.80871 19.0424 7.87707 19.0375 7.88195C19.0277 7.89172 18.5834 8.19934 18.056 8.56555C17.4506 8.98547 17.0697 9.22473 17.0307 9.20031C16.9672 9.16125 15.1752 7.91125 15.1459 7.88684C15.1361 7.87707 15.141 7.80383 15.1605 7.72082C15.1898 7.5841 15.2142 7.56945 15.5414 7.49621C16.3715 7.31555 17.2943 7.27649 18.0658 7.39856ZM11.4398 8.29699L11.723 8.50695L11.3617 8.88293C11.1615 9.09289 10.8734 9.42981 10.7172 9.63977L10.434 10.0157L9.90174 9.4884L9.3744 8.96106L10.0189 8.31652L10.6635 7.67199L10.9076 7.88195C11.0443 7.99426 11.2836 8.18469 11.4398 8.29699ZM14.2767 8.34094C14.3158 8.38977 14.8676 8.79016 15.5023 9.22961L16.6498 10.0353V10.8263V11.6222L15.5853 12.3302L14.5258 13.0382L13.7201 12.7159C13.2758 12.5402 12.89 12.3693 12.8607 12.34C12.8314 12.3058 12.6605 11.9054 12.4799 11.4513C12.016 10.2892 12.0355 10.3185 11.7572 10.1769L11.518 10.0548L11.7182 9.81555C12.226 9.21008 13.0267 8.56555 13.7738 8.16027L14.1351 7.96496L14.1644 8.11145C14.184 8.18957 14.2328 8.29699 14.2767 8.34094ZM20.3754 8.16027C20.7953 8.37512 21.2494 8.68274 21.6742 9.03918L22.0307 9.34192L21.8891 9.40051C21.8158 9.43469 21.7279 9.51281 21.6986 9.57629C21.6693 9.63977 21.474 10.2989 21.2641 11.0411L20.8832 12.3888L20.224 12.6915L19.5599 12.9894L18.5443 12.3204L17.5287 11.6466V10.8361V10.0255L18.7055 9.20031C19.35 8.7511 19.9115 8.33606 19.9506 8.28235C19.9896 8.22863 20.0189 8.14563 20.0189 8.0968C20.0189 7.98449 20.0189 7.98449 20.3754 8.16027ZM1.70839 8.91223C2.74354 9.01965 3.55409 9.25402 4.46717 9.70813C4.92128 9.93274 5.69764 10.4308 6.01991 10.7091L6.20057 10.8654L4.53553 12.5255L2.87538 14.1857L2.70448 13.9904C2.41639 13.6583 1.96717 12.9698 1.71327 12.4669C1.23475 11.5196 0.951549 10.4503 0.892956 9.41027C0.863659 8.86828 0.868541 8.83899 0.956432 8.83899C1.00526 8.83899 1.34706 8.87317 1.70839 8.91223ZM9.36952 10.2257L9.97499 10.8312L9.80409 11.2413C9.50624 11.9445 9.2328 12.9454 9.22792 13.3556C9.22303 13.6632 9.14979 13.6437 9.01307 13.297C8.75917 12.6622 8.19276 11.7296 7.69471 11.1339L7.4701 10.8654L8.09022 10.2452C8.43202 9.89856 8.72499 9.62024 8.73964 9.62024C8.75428 9.62024 9.03749 9.89367 9.36952 10.2257ZM23.0023 10.5577C23.4564 11.256 23.8324 12.1935 23.9887 13.0138C24.1303 13.756 24.1351 13.6974 23.9545 13.7853L23.7933 13.8585L22.7973 13.1993C22.2504 12.8331 21.7914 12.5304 21.7865 12.5206C21.7719 12.5109 22.0307 11.5685 22.3187 10.5821L22.4164 10.255H22.6117C22.7924 10.255 22.8119 10.2696 23.0023 10.5577ZM11.6449 11.7784L11.9769 12.6085L11.1566 13.4288L10.3363 14.254L10.1898 14.1759L10.0433 14.1027L10.0775 13.6779C10.1361 12.9113 10.3314 12.2032 10.7269 11.3683L11.0004 10.8019L11.1566 10.8751C11.2982 10.9435 11.3471 11.0265 11.6449 11.7784ZM7.2162 11.9738C7.96327 12.9796 8.42225 13.9904 8.66151 15.1476C8.76405 15.6505 8.76405 15.7189 8.63221 15.7433C8.56874 15.7579 8.29042 15.8165 8.00721 15.8751C7.72401 15.9337 7.20155 16.0753 6.84022 16.1974L6.19081 16.4122L5.91249 16.3048C5.21913 16.0363 4.35975 15.5382 3.78358 15.0695C3.65174 14.962 3.52967 14.8644 3.51503 14.8595C3.49061 14.8351 6.79628 11.5245 6.8451 11.5245C6.86464 11.5245 7.03065 11.7296 7.2162 11.9738ZM18.1049 13.0968C18.6176 13.4435 19.0424 13.7511 19.0424 13.7853C19.0424 13.8146 18.9008 14.3273 18.7299 14.9181L18.4223 15.9923L17.0844 16.007L15.7465 16.0167L15.434 14.9083C15.2631 14.2931 15.1215 13.7804 15.1166 13.7609C15.1068 13.7023 17.0599 12.4132 17.1137 12.4425C17.143 12.4571 17.5873 12.7501 18.1049 13.0968ZM13.4271 13.5509C13.8178 13.7071 14.1547 13.8536 14.184 13.878C14.2279 13.9171 14.9896 16.5148 14.9652 16.5441C14.9603 16.5489 14.7601 16.4806 14.5258 16.3829C13.3637 15.9142 12.0062 15.6407 10.7465 15.6212C10.0922 15.6066 10.1508 15.6359 10.0922 15.2696C10.0726 15.1573 10.0873 15.1378 10.1508 15.1622C10.3412 15.2355 10.4926 15.2404 10.6244 15.172C10.7025 15.128 11.1859 14.6739 11.6937 14.1661C12.2064 13.6534 12.6459 13.2433 12.6703 13.253C12.6996 13.2628 13.0365 13.3995 13.4271 13.5509ZM22.4115 14.0148C23.6371 14.8302 23.7592 14.8888 24.0326 14.7423C24.1303 14.6886 24.1303 14.6984 24.101 15.0011C24.018 15.7579 23.8031 16.588 23.5248 17.213L23.3734 17.5548L23.2367 17.423L23.1049 17.2863H21.6449H20.1898L19.7162 16.8077L19.2426 16.3341L19.6039 15.0695C19.8041 14.3761 19.975 13.7999 19.9799 13.7902C20.0092 13.7609 21.1664 13.2335 21.2055 13.2335C21.225 13.2335 21.767 13.5851 22.4115 14.0148ZM12.1088 16.6271C13.9935 16.9738 15.7367 17.7843 17.0648 18.9366C17.8851 19.6544 18.6078 20.3478 18.6322 20.4405C18.7006 20.7042 18.6224 20.7872 17.6849 21.4855C17.1869 21.8614 16.5424 22.3009 16.264 22.4718C15.0238 23.2091 13.6322 23.6779 12.1576 23.8536C11.3764 23.9513 9.41835 23.9464 8.64198 23.8536C7.02577 23.6534 5.39491 23.048 4.08143 22.1593C3.51991 21.7784 2.34315 20.8946 2.25038 20.7823C2.21131 20.7384 2.18202 20.631 2.18202 20.5431C2.18202 20.4113 2.25038 20.3234 2.66542 19.9327C3.95936 18.7169 4.77967 18.1163 5.93202 17.5499C6.98182 17.0372 7.86561 16.7638 9.08143 16.5734C9.67714 16.4806 11.4984 16.5148 12.1088 16.6271ZM18.9838 17.3497L19.4379 17.8087L19.0863 18.5167L18.7299 19.2296L18.1683 18.7169C17.4408 18.0626 16.8549 17.6183 16.1908 17.2179L15.6586 16.8956H17.0941H18.5297L18.9838 17.3497ZM22.7289 18.3165C22.807 18.463 22.8021 18.4728 22.6849 18.6437C22.3139 19.1808 21.601 19.84 20.9076 20.2843C20.6049 20.4796 19.6088 20.9923 19.5307 20.9972C19.516 20.9972 19.5111 20.8361 19.5209 20.6407C19.5355 20.3917 19.516 20.2306 19.4623 20.0988L19.389 19.9181L19.8236 19.0392L20.2631 18.1652H21.4594H22.6508L22.7289 18.3165Z" fill="black"/>
<path d="M6.36931 19.0677C6.26677 19.1654 6.24724 19.2337 6.24724 19.4828V19.7757H5.96404C5.79314 19.7757 5.64177 19.805 5.5783 19.849C5.33416 20.0199 5.35369 20.4496 5.61248 20.5814C5.6906 20.6205 5.86638 20.6546 6.0031 20.6546H6.24724V20.9476C6.24724 21.2699 6.33025 21.4066 6.56462 21.4652C6.87224 21.5433 7.12614 21.2699 7.12614 20.85V20.6546H7.51677H7.90739V20.9378C7.90739 21.2503 8.00505 21.4066 8.22478 21.4652C8.53239 21.5433 8.7863 21.2699 8.7863 20.8597V20.6546H9.17692H9.56755V20.933C9.57243 21.3333 9.75798 21.5238 10.0802 21.4652C10.3195 21.4212 10.4123 21.2796 10.4367 20.9476L10.4562 20.6546H10.842H11.2277V20.9183C11.2277 21.2845 11.3693 21.4603 11.6672 21.4603C11.965 21.4603 12.1066 21.2845 12.1066 20.9183V20.6546H12.4923H12.8781L12.8976 20.9476C12.922 21.3236 13.0392 21.4603 13.3322 21.4603C13.6203 21.4603 13.7668 21.2796 13.7668 20.9281V20.6644L14.0695 20.6449C14.3185 20.6253 14.3869 20.6009 14.4845 20.4886C14.6408 20.308 14.6359 20.0687 14.4699 19.9027C14.3576 19.7953 14.299 19.7757 14.0548 19.7757H13.7668V19.4877C13.7668 19.2435 13.7472 19.1849 13.6398 19.0726C13.547 18.9798 13.4591 18.9457 13.3322 18.9457C13.0295 18.9505 12.8879 19.1312 12.8879 19.5267V19.7757H12.4972H12.1066V19.5267C12.1066 19.1312 11.965 18.9505 11.6623 18.9457C11.5353 18.9457 11.4474 18.9798 11.3547 19.0726C11.2472 19.1849 11.2277 19.2435 11.2277 19.4877V19.7757H10.842H10.4562L10.4367 19.4828C10.4123 19.1068 10.2756 18.9457 9.99723 18.9457C9.69938 18.9457 9.56755 19.1068 9.56755 19.4828V19.7757H9.18181H8.79606L8.77653 19.4828C8.75212 19.1068 8.6154 18.9457 8.33708 18.9457C8.03923 18.9457 7.90739 19.1068 7.90739 19.4828V19.7757H7.52165H7.14079L7.1115 19.473C7.08708 19.224 7.06267 19.1459 6.95525 19.058C6.77947 18.9066 6.52556 18.9066 6.36931 19.0677Z" fill="black"/>
</svg>
