<svg width="12" height="7" viewBox="0 0 12 7" fill="none" xmlns="http://www.w3.org/2000/svg">
<path d="M0.238636 0.0729356C0.0795455 0.178692 0 0.346444 0 0.576191C0 0.681948 0.0198864 0.813232 0.0464015 0.867934C0.106061 0.988278 5.48864 6.90336 5.59138 6.96171C5.68419 7.01276 5.98248 7.01276 6.07528 6.96171C6.17803 6.90336 11.5606 0.988278 11.6203 0.867934C11.6468 0.813232 11.6667 0.681948 11.6667 0.576191C11.6667 0.222454 11.4645 0 11.143 0C11.0469 0 10.9342 0.0182338 10.8944 0.0401144C10.8546 0.061995 9.69792 1.31284 8.32907 2.82261L5.83333 5.56134L3.34091 2.82261C1.96875 1.31284 0.812027 0.061995 0.772254 0.0401144C0.652936 -0.0255275 0.361269 -0.0072937 0.238636 0.0729356Z" fill="white"/>
</svg>
